<?xml version="1.0" encoding="utf-8"?>
<!-- Generator: Adobe Illustrator 16.0.4, SVG Export Plug-In . SVG Version: 6.00 Build 0)  -->
<!DOCTYPE svg PUBLIC "-//W3C//DTD SVG 1.1//EN" "http://www.w3.org/Graphics/SVG/1.1/DTD/svg11.dtd">
<svg version="1.1" id="Ebene_1" xmlns="http://www.w3.org/2000/svg" xmlns:xlink="http://www.w3.org/1999/xlink" x="0px" y="0px"
	 width="900px" height="500px" viewBox="0 0 900 500" enable-background="new 0 0 900 500" xml:space="preserve">
<g>
	<path fill="#DCE0DF" d="M137.41,209.744c-7.285-8.424-9.41-11.701-9.41-22.816c0-4.563,1.315-8.542,3.541-11.583
		c-0.405,1.872-0.708,3.861-0.708,6.084c0,11.7,2.732,16.029,10.017,24.454l10.422,12.169c2.833,3.393,3.744,6.318,3.744,9.828
		c0,2.807-1.113,4.68-2.833,5.149c-0.101-4.213-1.518-7.373-4.047-10.882l-0.81-0.819v-3.393h-2.833L137.41,209.744z
		 M151.17,249.292c3.137,0,6.071-0.586,8.702-1.639c-3.44,3.158-8.196,4.915-13.356,4.915c-10.219,0-18.415-6.553-18.415-18.487
		v-8.425h2.934v3.043C131.035,240.984,139.13,249.292,151.17,249.292z M169.99,228.582c0,11.818-8.701,18.369-18.819,18.369
		s-18.314-6.551-18.314-18.369v-8.542h12.546v7.723c0,4.915,2.631,7.489,5.768,7.489s5.666-2.809,5.666-7.489
		c0-4.446-1.214-7.956-4.047-11.232l-10.624-12.285c-7.285-8.425-9.41-11.818-9.41-22.933s7.69-18.37,18.415-18.37
		s18.313,7.371,18.313,18.37v5.616h-12.647v-3.276c0-5.851-2.631-9.126-5.666-9.126c-3.137,0-5.768,2.808-5.768,6.435
		c0,3.744,0.81,6.318,3.744,10.18l12.648,16.849C166.854,214.541,169.99,218.987,169.99,228.582z M152.182,192.076v-2.925
		c0-5.148-2.125-8.308-4.755-8.893c0.405-1.989,1.922-3.393,3.744-3.393c2.327,0,3.845,2.691,3.845,6.903v5.382h9.814v3.276h-12.344
		L152.182,192.076z"/>
	<path fill="#DCE0DF" d="M189.803,247.994h23.546v2.932h-26.082V177.62h2.536V247.994z M217.605,235.427v10.471h-26.172v-73.304
		h11.32v62.833H217.605z"/>
	<path fill="#DCE0DF" d="M234.355,247.888h26.082v3.037H231.82V177.62h2.536V247.888z M264.693,235.322v10.576h-28.617v-73.304
		h27.349v10.577h-16.029v17.907h11.411v10.472h-11.411v23.772H264.693z M249.026,188.092v-3.037h10.143v3.037H249.026z
		 M249.026,216.472v-2.932h5.615v2.932H249.026z"/>
	<path fill="#DCE0DF" d="M288.417,247.888l-2.536,2.932h-10.596l12.95-73.304l2.083-2.304l-12.95,72.676H288.417z M303.269,228.829
		h-10.958l-2.173,17.069h-10.686l13.041-73.304h11.32l13.041,73.304h-11.32L303.269,228.829z M315.132,247.888l-2.536,2.932h-11.32
		l-2.174-16.965h-5.705l0.362-2.932h8.15l2.083,16.965H315.132z M301.458,218.356l-3.441-26.285h-0.272l-3.532,26.285H301.458z
		 M297.835,204.01l1.63,12.566h-3.169l-0.091-0.732L297.835,204.01z"/>
	<path fill="#DCE0DF" d="M331.52,247.994h32.059v2.932h-34.594V237.73l2.536-5.445V247.994z M331.067,187.988V177.62h2.536v7.436
		h19.923l-1.358,2.932H331.067z M369.012,183.694l-24.27,51.733h23.002v10.471H333.24v-13.195l23.002-49.637h-20.919v-10.472h33.688
		V183.694z"/>
	<path fill="#DCE0DF" d="M396.81,247.994h8.422v2.932h-10.958V222.44l-13.131-44.82h3.894l11.773,40.213V247.994z M422.71,172.594
		l-13.312,44.82v28.484h-10.867v-28.484l-13.222-44.82h11.139l7.698,35.291l7.426-35.291H422.71z M404.146,200.24l-0.815-3.456
		l3.984-19.164h1.54L404.146,200.24z"/>
	<path fill="#DCE0DF" d="M481.025,245.898c-10.867,0-18.021-10.158-18.021-21.991c0-10.158,4.619-15.708,10.506-18.641
		c-4.166-1.885-8.332-8.273-8.332-15.604c0-11.519,5.977-18.012,15.848-18.012c0.09,0,0.271,0.104,0.271,0.104
		c0.09,0,0.182-0.104,0.363-0.104c9.871,0,15.848,6.493,15.848,18.012c0,9.53-7.518,15.499-13.584,19.583l9.418,14.766
		c-0.543-1.989-0.906-4.084-0.906-6.179c0-2.932,0.725-5.759,2.627-7.958l0.271-0.314h11.049v1.99h-10.234
		c-1.449,1.78-1.992,3.979-1.992,6.388c0,5.341,2.898,11.52,4.891,15.08l7.789,12.254l0.09,0.627H481.025z M481.025,235.322h17.387
		c-0.271-0.314-0.543-0.838-0.904-1.467l-15.033-23.667c-4.98,2.933-7.789,6.912-7.789,13.719
		C474.686,229.771,476.498,235.322,481.025,235.322z M475.953,190.605c0,3.875,1.631,7.959,4.258,11.833
		c4.074-1.571,6.52-7.958,6.52-11.833c0-5.34-1.721-8.482-5.252-8.482C478.037,182.124,475.953,185.37,475.953,190.605z"/>
	<path fill="#DCE0DF" d="M550.93,248.121h9.814v3.395h-12.648v-81.904h2.834V248.121z M565.398,163.995v81.903H552.75v-81.903
		H565.398z"/>
	<path fill="#DCE0DF" d="M585.719,247.994h8.783v2.932h-11.318V177.62h2.535V247.994z M621.309,172.594v73.304h-11.32L598.85,204.01
		h-0.182v41.888h-11.32v-73.304h11.955l10.506,40.736h0.18v-40.736H621.309z M608.721,247.994h8.422v2.932h-11.32l-5.434-20.42
		v-14.138L608.721,247.994z M608.359,201.183l-2.537-9.949V177.62h2.537V201.183z"/>
	<path fill="#DCE0DF" d="M640.141,247.994h8.785v2.932h-11.32V177.62h2.535V247.994z M665.588,245.898l-11.592-28.065h-0.543
		l-0.361,0.523v27.542h-11.32v-73.304h11.32v26.18h0.271l11.049-26.18h10.775l-15.213,32.673l18.654,40.631H665.588z
		 M673.014,247.994l1.359,2.932h-12.951l-6.609-15.918v-10.681l9.689,23.667H673.014z"/>
	<path fill="#DCE0DF" d="M694.201,247.888h26.082v3.037h-28.617V177.62h2.535V247.888z M724.539,235.322v10.576h-28.617v-73.304
		h27.35v10.577h-16.029v17.907h11.41v10.472h-11.41v23.772H724.539z M708.873,188.092v-3.037h10.143v3.037H708.873z
		 M708.873,216.472v-2.932h5.613v2.932H708.873z"/>
	<path fill="#DCE0DF" d="M761.848,247.888c1.539,0,3.078-0.314,4.527-0.838c-2.354,2.408-5.434,3.875-8.785,3.875h-20.375V177.62
		h2.535v70.268h13.041H761.848z M775.885,193.538v31.416c0,11.206-4.258,20.944-14.037,20.944h-20.377v-73.304h20.377
		c6.43,0,11.773,5.131,13.221,12.252C775.613,187.569,775.885,190.605,775.885,193.538z M765.197,193.538
		c0-5.865-1.086-10.368-5.705-10.368h-6.701v52.151h6.701c4.619,0,5.705-4.504,5.705-10.368V193.538z M763.477,193.643v31.416
		c0,5.865-1.176,7.75-2.717,8.378c0.092-1.152,0.182-2.305,0.182-3.561v-31.312c0-5.969-1.086-10.472-5.615-10.472h-0.904v-3.037
		h5.07C761.666,185.056,763.477,186.208,763.477,193.643z"/>
</g>
<g>
	<g>
		<path fill="#DCE0DF" d="M282.497,364.895c0.7-0.666,1.383-1.266,2.05-1.799c0.666-0.533,1.383-1.051,2.15-1.551
			c0.566-0.367,1.258-0.725,2.075-1.076c0.816-0.352,1.592-0.475,2.325-0.373c0.566,0.061,0.983,0.238,1.25,0.529
			c0.267,0.291,0.366,0.697,0.3,1.219c-0.1,0.676-0.45,1.396-1.05,2.164s-1.284,1.457-2.05,2.07c-0.434,0.338-0.9,0.637-1.4,0.896
			c-0.5,0.262-1,0.484-1.5,0.668c-0.5,0.186-0.975,0.322-1.425,0.414c-0.45,0.094-0.842,0.139-1.175,0.139
			c-0.3,0-0.625-0.053-0.975-0.16c-0.35-0.105-0.525-0.357-0.525-0.754c0-0.213,0.1-0.41,0.3-0.592c0.2-0.184,0.433-0.359,0.7-0.525
			c0.266-0.168,0.558-0.305,0.875-0.412c0.316-0.105,0.625-0.205,0.925-0.297c0.7-0.182,1.308-0.342,1.825-0.479
			c0.516-0.137,1.008-0.297,1.475-0.479c0.267-0.244,0.566-0.602,0.9-1.074c0.333-0.471,0.566-0.875,0.7-1.209
			c0.066-0.244,0.108-0.533,0.125-0.867c0.017-0.334-0.192-0.502-0.625-0.502c-0.467,0-1.083,0.184-1.85,0.551
			c-0.767,0.367-1.6,0.873-2.5,1.516c-1.1,0.797-2.059,1.547-2.875,2.252c-0.817,0.705-1.708,1.5-2.675,2.389
			c-0.4,0.398-0.883,0.611-1.45,0.643c-0.5,0.033-0.775-0.025-0.825-0.176c-0.05-0.15-0.008-0.357,0.125-0.623
			c0.233-0.5,0.525-1.025,0.875-1.574c0.35-0.551,0.741-1.141,1.175-1.775c0.233-0.332,0.466-0.656,0.7-0.973
			c0.233-0.316,0.483-0.643,0.75-0.975h-0.05c-0.367,0.299-0.708,0.6-1.025,0.898c-0.317,0.301-0.575,0.551-0.775,0.75
			c-0.267,0.234-0.45,0.285-0.55,0.15c-0.066-0.066,0.05-0.25,0.35-0.549c0.467-0.4,0.958-0.84,1.475-1.322
			c0.517-0.48,1.058-0.953,1.625-1.416c0.9-1.156,1.85-2.354,2.85-3.594c1-1.238,2.083-2.52,3.25-3.84
			c0.7-0.859,1.583-1.852,2.65-2.975c1.066-1.123,2.15-2.238,3.25-3.346c1.1-1.105,2.167-2.131,3.2-3.072
			c1.033-0.941,1.866-1.627,2.5-2.057c0.7-0.496,1.4-0.951,2.1-1.363c0.7-0.414,1.416-0.621,2.15-0.621
			c0.667,0,1.108,0.188,1.325,0.562s0.292,0.803,0.225,1.279c-0.1,0.613-0.45,1.32-1.05,2.121c-0.6,0.803-1.375,1.67-2.325,2.607
			c-0.95,0.938-2.017,1.918-3.2,2.941c-1.184,1.023-2.409,2.078-3.675,3.17c-0.767,0.646-1.592,1.312-2.475,1.994
			c-0.883,0.682-1.775,1.381-2.675,2.096c-0.9,0.717-1.784,1.432-2.65,2.148c-0.867,0.715-1.667,1.408-2.4,2.08
			c-0.2,0.268-0.467,0.625-0.8,1.076c-0.333,0.449-0.659,0.893-0.975,1.324c-0.317,0.434-0.692,0.967-1.125,1.6L282.497,364.895z
			 M288.247,364.645c-0.3,0.168-0.708,0.342-1.225,0.525c-0.517,0.184-0.975,0.342-1.375,0.475c-0.633,0.201-1.184,0.451-1.65,0.75
			c-0.467,0.301-0.617,0.6-0.45,0.9c0.033,0.066,0.107,0.117,0.225,0.15c0.117,0.033,0.258,0.049,0.425,0.049
			c0.466-0.031,1.05-0.266,1.75-0.699c0.3-0.199,0.7-0.525,1.2-0.975c0.5-0.451,0.867-0.826,1.1-1.125V364.645z M286.097,358.994
			c1.2-1.066,2.233-1.949,3.1-2.648c0.866-0.701,1.641-1.326,2.325-1.875c0.683-0.551,1.3-1.051,1.85-1.5
			c0.55-0.451,1.108-0.926,1.675-1.426c1.2-1.066,2.357-2.107,3.475-3.125c1.117-1.016,2.108-1.967,2.975-2.85
			c0.867-0.883,1.575-1.701,2.125-2.451c0.55-0.75,0.841-1.391,0.875-1.924c0.033-0.633-0.25-0.951-0.85-0.951
			c-0.434,0-0.95,0.209-1.55,0.625c-0.6,0.418-1.167,0.875-1.7,1.375c-0.833,0.834-1.825,1.844-2.975,3.025
			c-1.15,1.184-2.375,2.559-3.675,4.125c-0.9,1.1-1.684,2.043-2.35,2.826c-0.667,0.783-1.275,1.523-1.825,2.225
			c-0.55,0.699-1.1,1.4-1.65,2.1c-0.55,0.699-1.159,1.5-1.825,2.4V358.994z"/>
		<path fill="#DCE0DF" d="M297.996,361.246c-0.167,0.092-0.45,0.268-0.85,0.529c-0.4,0.26-0.784,0.529-1.15,0.805
			c-0.367,0.277-0.717,0.545-1.05,0.805c-0.334,0.262-0.717,0.576-1.15,0.945c-0.266,0.184-0.433,0.244-0.5,0.184
			c-0.066-0.062-0.066-0.139,0-0.23c0.067-0.092,0.15-0.184,0.25-0.275c0.1-0.092,0.3-0.254,0.6-0.484
			c0.3-0.229,0.642-0.498,1.025-0.805c0.383-0.307,0.775-0.605,1.175-0.898c0.4-0.291,0.75-0.529,1.05-0.713
			c0.667-0.43,1.2-0.697,1.6-0.805s0.833-0.176,1.3-0.207c0.533,0,0.833,0.049,0.9,0.148c0.066,0.102-0.05,0.318-0.35,0.65
			c-0.467,0.533-0.884,1.033-1.25,1.5c-0.367,0.467-0.8,1-1.3,1.6c-0.434,0.535-0.783,1-1.05,1.4c-0.267,0.4-0.55,0.834-0.85,1.301
			c-0.233,0.467-0.284,0.768-0.15,0.9c0.1,0.1,0.258,0.125,0.475,0.074c0.216-0.051,0.458-0.141,0.725-0.275
			c0.566-0.266,1.15-0.615,1.75-1.049c0.6-0.434,1.283-0.934,2.05-1.5c1.1-0.834,2.05-1.576,2.85-2.227
			c0.8-0.648,1.633-1.34,2.5-2.074c0.2-0.166,0.4-0.283,0.6-0.35c0.2-0.066,0.482-0.1,0.85-0.1c0.433,0,0.733,0.041,0.9,0.121
			c0.166,0.082,0.116,0.287-0.15,0.615c-0.4,0.525-0.867,1.131-1.4,1.818c-0.534,0.688-1.05,1.359-1.55,2.014
			c-0.434,0.557-1.167,1.508-2.2,2.85c-1.034,1.344-2.5,3.293-4.4,5.848c-1.1,1.473-2.025,2.717-2.775,3.734
			c-0.75,1.014-1.442,1.965-2.075,2.848c-0.633,0.885-1.25,1.785-1.85,2.703c-0.6,0.918-1.316,2.014-2.15,3.293
			c-0.1,0.162-0.183,0.352-0.25,0.564c-0.066,0.213-0.066,0.352,0,0.416c0.134,0.1,0.384-0.031,0.75-0.393
			c0.134-0.131,0.333-0.369,0.6-0.711c0.267-0.346,0.567-0.754,0.9-1.229c0.333-0.477,0.692-0.977,1.075-1.5
			c0.383-0.523,0.741-1.031,1.075-1.523c0.566-0.785,1.325-1.824,2.275-3.119c0.95-1.293,2.075-2.775,3.375-4.445
			c1.033-1.279,2.091-2.531,3.175-3.76c1.083-1.229,2.158-2.365,3.225-3.414c0.566-0.557,1.108-1.08,1.625-1.572
			c0.516-0.49,1.008-0.934,1.475-1.326c0.1-0.098,0.216-0.188,0.35-0.27c0.133-0.082,0.233-0.092,0.3-0.025
			c0.066,0.064,0.033,0.172-0.1,0.318c-0.134,0.148-0.233,0.254-0.3,0.32c-0.334,0.295-0.775,0.705-1.325,1.229
			s-1.125,1.08-1.725,1.67c-0.967,0.949-2.008,2.062-3.125,3.342c-1.117,1.275-2.175,2.537-3.175,3.783
			c-1.167,1.539-2.259,2.988-3.275,4.348c-1.018,1.359-1.909,2.596-2.675,3.709c-0.8,1.113-1.55,2.154-2.25,3.119
			c-0.7,0.967-1.366,1.729-2,2.285c-0.2,0.197-0.433,0.361-0.7,0.492c-0.267,0.131-0.517,0.18-0.75,0.146
			c-0.633-0.064-0.95-0.426-0.95-1.08c0-0.426,0.225-1.033,0.675-1.818c0.45-0.787,0.909-1.557,1.375-2.309
			c0.434-0.689,0.867-1.352,1.3-1.99c0.434-0.641,0.909-1.328,1.425-2.064c0.517-0.736,1.092-1.547,1.725-2.432s1.4-1.934,2.3-3.145
			c1.2-1.637,2.408-3.275,3.625-4.912c1.217-1.639,2.575-3.473,4.075-5.504l-0.15-0.049c-0.534,0.381-1.167,0.826-1.9,1.334
			c-0.734,0.51-1.384,0.938-1.95,1.285c-0.867,0.553-1.8,1.105-2.8,1.656c-1,0.553-1.917,0.828-2.75,0.828
			c-0.967,0-1.4-0.445-1.3-1.334c0.034-0.215,0.125-0.492,0.275-0.83c0.15-0.338,0.325-0.643,0.525-0.92
			c0.833-1.227,2.016-2.5,3.55-3.82V361.246z"/>
		<path fill="#DCE0DF" d="M352.606,352.275c2.186-0.961,4.266-1.867,6.24-2.721c1.973-0.852,4.026-1.684,6.16-2.492
			c1.44-2.105,2.946-3.971,4.52-5.6c1.572-1.629,3.16-2.971,4.76-4.023c1.653-1.053,3.306-1.654,4.96-1.805
			c0.64-0.053,1.28,0.053,1.92,0.314c0.64,0.264,0.906,0.797,0.8,1.602c-0.107,1.182-1.08,2.4-2.92,3.652
			c-1.84,1.254-4.12,2.377-6.84,3.369c-0.374,0.143-0.733,0.285-1.08,0.426c-0.348,0.143-0.708,0.26-1.08,0.355
			c-0.748,1.23-1.494,2.494-2.24,3.795c-0.748,1.301-1.44,2.496-2.08,3.582c-1.547,2.648-3.268,4.92-5.16,6.811
			c-1.894,1.893-3.948,3.453-6.16,4.682c-2.214,1.23-4.534,2.164-6.96,2.803c-2.428,0.639-4.948,1.027-7.56,1.17
			c-2.134,0.105-4.4,0.008-6.8-0.297c-2.4-0.305-4.48-0.982-6.24-2.033c-1.494,1.143-2.813,2.336-3.96,3.582
			c-1.146,1.244-1.96,2.4-2.44,3.467c-0.266,0.533-0.48,0.773-0.64,0.721c-0.106-0.053-0.146-0.199-0.12-0.439
			c0.028-0.24,0.068-0.414,0.12-0.52c0.428-1.174,1.16-2.422,2.2-3.736c1.04-1.318,2.306-2.572,3.8-3.76
			c-0.854-0.641-1.587-1.508-2.2-2.605c-0.614-1.096-0.868-2.375-0.76-3.836c0.16-1.691,0.84-3.176,2.04-4.455
			s2.64-2.365,4.32-3.256c1.68-0.891,3.453-1.574,5.32-2.055c1.866-0.48,3.546-0.766,5.04-0.857c1.066-0.1,2.226-0.111,3.48-0.035
			c1.252,0.078,2.492,0.275,3.72,0.596c1.227,0.318,2.346,0.76,3.36,1.318c1.012,0.561,1.812,1.295,2.4,2.201L352.606,352.275z
			 M351.166,351.543c-0.427-0.607-1.094-1.09-2-1.447c-0.907-0.357-1.907-0.635-3-0.832c-1.094-0.197-2.227-0.33-3.4-0.4
			c-1.174-0.072-2.24-0.055-3.2,0.051c-1.388,0.074-2.868,0.277-4.44,0.619c-1.574,0.34-3.04,0.834-4.4,1.486
			c-1.36,0.652-2.507,1.67-3.44,3.057c-0.934,1.387-1.48,3.014-1.64,4.881c-0.107,1.387,0.013,2.627,0.36,3.719
			c0.346,1.094,0.812,1.988,1.4,2.68c0.32-0.32,0.68-0.639,1.08-0.959s0.786-0.641,1.16-0.961c0.747-0.586,1.533-1.146,2.36-1.68
			c0.826-0.533,1.666-1.092,2.52-1.68c-0.96-0.854-1.52-1.867-1.68-3.041c-0.054-0.158-0.054-0.346,0-0.559
			c0.053-0.213,0.132-0.293,0.24-0.24c0.106,0,0.146,0.066,0.12,0.199c-0.027,0.135,0.013,0.281,0.12,0.441
			c0.373,1.119,1.013,2.053,1.92,2.799c1.707-1.066,3.48-2.08,5.32-3.039c1.84-0.961,3.64-1.84,5.4-2.641l5.28-2.4L351.166,351.543z
			 M341.806,362.596c-0.96,0-1.987-0.133-3.08-0.4c-1.094-0.268-2.094-0.693-3-1.281c-0.854,0.588-1.667,1.107-2.44,1.557
			c-0.773,0.451-1.56,0.877-2.36,1.283c-0.428,0.221-0.868,0.451-1.32,0.689c-0.454,0.24-0.894,0.488-1.32,0.744
			c1.493,0.994,3.386,1.65,5.68,1.969c2.292,0.32,4.506,0.398,6.64,0.238c4.266-0.316,8.012-1.639,11.24-3.967
			c3.226-2.328,6.28-5.752,9.16-10.273c0.586-0.904,1.172-1.764,1.76-2.576c0.586-0.814,1.173-1.605,1.76-2.375v-0.088
			c-1.974,0.734-3.88,1.469-5.72,2.205c-1.84,0.734-3.748,1.52-5.72,2.352c0.32,0.639,0.48,1.396,0.48,2.279
			c-0.054,1.225-0.454,2.316-1.2,3.271c-0.748,0.955-1.68,1.75-2.8,2.389c-1.12,0.637-2.36,1.127-3.72,1.471
			c-1.36,0.342-2.68,0.514-3.96,0.514H341.806z M341.726,361.795c1.066,0,2.187-0.305,3.36-0.916c1.172-0.609,2.24-1.266,3.2-1.967
			c0.96-0.699,1.76-1.518,2.4-2.451c0.64-0.932,0.986-1.959,1.04-3.08c0-0.746-0.08-1.387-0.24-1.92
			c-0.854,0.428-1.72,0.84-2.6,1.24s-1.8,0.814-2.76,1.24c-1.334,0.641-2.854,1.439-4.56,2.4c-1.708,0.959-3.44,2.027-5.2,3.199
			c0.906,0.846,1.826,1.432,2.76,1.762c0.932,0.328,1.772,0.492,2.52,0.492H341.726z M370.606,343.395
			c0.212-0.105,0.44-0.199,0.68-0.279c0.24-0.08,0.466-0.174,0.68-0.281c1.12-0.479,2.2-0.986,3.24-1.52
			c1.04-0.531,1.986-1.105,2.84-1.719c0.853-0.613,1.56-1.254,2.12-1.92c0.56-0.668,0.867-1.32,0.92-1.961
			c0.106-0.586-0.04-1-0.44-1.24c-0.4-0.24-0.867-0.307-1.4-0.199c-1.12,0.16-2.347,0.906-3.68,2.24
			c-0.748,0.693-1.56,1.652-2.44,2.879c-0.88,1.229-1.72,2.533-2.52,3.92V343.395z"/>
		<path fill="#DCE0DF" d="M381.245,358.018c0.906-0.928,1.72-1.623,2.44-2.086c0.72-0.465,1.4-0.697,2.04-0.697
			c0.852-0.053,1.346,0.02,1.48,0.217c0.132,0.197-0.014,0.516-0.44,0.955c-0.534,0.537-1.2,1.234-2,2.088
			c-0.8,0.854-1.627,1.77-2.48,2.744c-0.693,0.732-1.24,1.367-1.64,1.906c-0.4,0.537-0.788,1.096-1.16,1.682
			c-0.587,0.83-0.667,1.393-0.24,1.686c0.213,0.146,0.493,0.17,0.84,0.072c0.346-0.098,0.68-0.219,1-0.367
			c0.426-0.195,0.972-0.5,1.64-0.914c0.666-0.416,1.32-0.867,1.96-1.354c0.853-0.635,1.6-1.197,2.24-1.684
			c0.64-0.488,1.172-0.928,1.6-1.32c0.212-0.145,0.413-0.291,0.6-0.438c0.186-0.146,0.333-0.172,0.44-0.074
			c0.106,0.098,0.052,0.27-0.16,0.512c-0.214,0.246-0.374,0.416-0.48,0.514c-0.48,0.439-1.214,1.049-2.2,1.83
			c-0.988,0.781-1.854,1.441-2.6,1.977c-0.8,0.586-1.814,1.223-3.04,1.904c-1.228,0.684-2.508,1.025-3.84,1.025
			c-0.747,0-1.307-0.146-1.68-0.439c-0.374-0.293-0.587-0.658-0.64-1.098c-0.054-0.391,0.026-0.83,0.24-1.318
			c0.212-0.488,0.506-0.928,0.88-1.318h-0.08c-0.534,0.439-1.147,0.891-1.84,1.355c-0.694,0.463-1.428,0.902-2.2,1.316
			c-0.774,0.416-1.574,0.758-2.4,1.025c-0.828,0.27-1.614,0.428-2.36,0.477c-0.908,0.053-1.707-0.117-2.4-0.51
			c-0.692-0.393-0.986-1.199-0.88-2.42c0.107-0.535,0.32-1.133,0.64-1.793c0.32-0.658,0.854-1.379,1.6-2.16h-0.08l-0.72,0.721
			c-0.212,0.158-0.412,0.307-0.6,0.439c-0.187,0.133-0.333,0.146-0.44,0.039c-0.106-0.105-0.08-0.252,0.08-0.439
			c0.16-0.186,0.32-0.359,0.48-0.52c0.428-0.404,0.866-0.764,1.32-1.082c0.452-0.316,0.892-0.623,1.32-0.916
			c0.426-0.244,1-0.584,1.72-1.025c0.72-0.438,1.48-0.854,2.28-1.244c1.44-0.684,2.866-1.234,4.28-1.658
			c1.413-0.42,2.653-0.553,3.72-0.393c0.8,0.148,1.346,0.488,1.64,1.025c0.292,0.537,0.306,1.123,0.04,1.758H381.245z
			 M379.085,356.035c-0.748,0-1.788,0.434-3.12,1.299c-1.333,0.865-2.72,1.945-4.16,3.244c-1.547,1.346-2.693,2.512-3.44,3.496
			c-0.748,0.986-1.094,1.719-1.04,2.199c0.053,0.48,0.4,0.721,1.04,0.721c0.747,0,1.786-0.336,3.12-1.008
			c1.333-0.672,2.533-1.467,3.6-2.381c0.64-0.527,1.28-1.094,1.92-1.695c0.64-0.6,1.226-1.188,1.76-1.766
			c0.533-0.576,0.973-1.117,1.32-1.623c0.346-0.504,0.52-0.9,0.52-1.189c0.052-0.865-0.428-1.297-1.44-1.297H379.085z"/>
		<path fill="#DCE0DF" d="M392.045,358.703c-0.587,0.545-1.254,1.127-2,1.744c-0.748,0.617-1.334,1.1-1.76,1.445
			c-0.16,0.148-0.332,0.271-0.52,0.371c-0.187,0.1-0.333,0.1-0.44,0c-0.106-0.1-0.08-0.248,0.08-0.445
			c0.16-0.197,0.32-0.346,0.48-0.445c1.066-0.889,2.212-1.84,3.44-2.854c1.227-1.014,2.213-1.842,2.96-2.484
			c-0.534,0-0.987,0.014-1.36,0.039c-0.374,0.027-0.88,0.041-1.52,0.041c-0.64,0.107-0.934-0.027-0.88-0.4
			c0.053-0.213,0.772-0.373,2.16-0.48c0.48,0,0.853,0,1.12,0c0.32,0,0.693,0,1.12,0c1.227-1.545,2.56-3.092,4-4.639
			s2.613-2.773,3.52-3.682c0.746-0.746,1.56-1.479,2.44-2.199c0.88-0.721,1.747-1.08,2.6-1.08c0.426,0,0.706,0.055,0.84,0.16
			c0.133,0.107,0.253,0.213,0.36,0.32c-0.48,0.428-1.188,1.133-2.12,2.119c-0.934,0.988-1.854,2.014-2.76,3.08
			c-0.907,1.068-1.747,2.055-2.52,2.961c-0.773,0.906-1.56,1.893-2.36,2.959c0.906,0,1.732,0,2.48,0c0.747,0,1.44,0,2.08,0
			c0.266,0,0.546,0,0.84,0c0.292,0,0.386,0,0.28,0c-0.107,0.48-0.294,0.721-0.56,0.721c-0.268,0-0.56,0-0.88,0
			c-0.908,0-1.734,0-2.48,0c-0.694,0-1.494,0.027-2.4,0.08c-0.374,0.445-0.827,1-1.36,1.668c-0.534,0.668-1.067,1.371-1.6,2.113
			c-0.534,0.742-1.04,1.496-1.52,2.262c-0.48,0.768-0.907,1.471-1.28,2.113c-0.268,0.395-0.414,0.803-0.44,1.223
			c-0.027,0.42,0.12,0.73,0.44,0.928c0.266,0.148,0.572,0.174,0.92,0.074c0.346-0.1,0.68-0.223,1-0.371
			c0.426-0.248,0.973-0.557,1.64-0.928c0.666-0.369,1.32-0.803,1.96-1.297c0.746-0.543,1.466-1.086,2.16-1.631
			c0.692-0.543,1.252-1.014,1.68-1.41c0.212-0.146,0.413-0.283,0.6-0.406c0.187-0.123,0.333-0.135,0.44-0.037
			c0.106,0.1,0.053,0.26-0.16,0.48c-0.214,0.223-0.374,0.385-0.48,0.484c-0.48,0.443-1.173,1.049-2.08,1.814
			c-0.908,0.768-1.814,1.447-2.72,2.039c-0.374,0.299-0.828,0.619-1.36,0.965c-0.534,0.346-1.12,0.666-1.76,0.963
			c-0.64,0.297-1.32,0.557-2.04,0.779c-0.72,0.223-1.454,0.334-2.2,0.334c-0.908,0-1.547-0.211-1.92-0.631s-0.533-0.9-0.48-1.445
			c0.107-0.939,0.56-2.039,1.36-3.299c0.8-1.26,1.786-2.607,2.96-4.041V358.703z"/>
		<path fill="#DCE0DF" d="M408.364,357.234c-0.268,0.16-0.72,0.469-1.36,0.92c-0.64,0.455-1.254,0.92-1.84,1.4
			c-0.587,0.48-1.147,0.947-1.68,1.4c-0.534,0.453-1.147,1-1.84,1.641c-0.426,0.318-0.692,0.426-0.8,0.318
			c-0.106-0.105-0.106-0.238,0-0.398c0.107-0.16,0.24-0.348,0.4-0.561c0.16-0.16,0.48-0.439,0.96-0.84s1.026-0.854,1.64-1.361
			c0.612-0.506,1.24-1.012,1.88-1.52c0.64-0.506,1.2-0.92,1.68-1.24c1.066-0.746,1.92-1.225,2.56-1.439
			c0.64-0.213,1.333-0.32,2.08-0.32c0.853-0.053,1.346,0.014,1.48,0.201c0.132,0.188-0.068,0.547-0.6,1.08
			c-0.748,0.799-1.44,1.613-2.08,2.439c-0.64,0.828-1.36,1.721-2.16,2.68c-0.693,0.854-1.28,1.613-1.76,2.279
			c-0.48,0.668-0.854,1.215-1.12,1.641c-0.48,0.908-0.56,1.494-0.24,1.76c0.212,0.268,0.492,0.334,0.84,0.201
			c0.346-0.133,0.706-0.281,1.08-0.441c0.426-0.211,0.972-0.545,1.64-1c0.666-0.451,1.292-0.945,1.88-1.479
			c0.853-0.693,1.6-1.307,2.24-1.842c0.64-0.531,1.173-1.012,1.6-1.439c0.212-0.105,0.426-0.24,0.64-0.4
			c0.212-0.16,0.373-0.186,0.48-0.08c0.106,0.107,0.052,0.281-0.16,0.521c-0.214,0.24-0.374,0.414-0.48,0.52
			c-0.48,0.48-1.214,1.146-2.2,2c-0.988,0.854-1.854,1.574-2.6,2.16c-0.8,0.641-1.828,1.348-3.08,2.119
			c-1.254,0.773-2.547,1.16-3.88,1.16c-0.854,0-1.48-0.199-1.88-0.6c-0.4-0.4-0.572-0.893-0.52-1.48c0-0.531,0.12-1.053,0.36-1.559
			c0.24-0.508,0.52-1,0.84-1.48c0.426-0.641,0.906-1.293,1.44-1.961c0.533-0.666,1.093-1.32,1.68-1.959
			c0.586-0.641,1.132-1.227,1.64-1.76c0.506-0.533,0.92-0.934,1.24-1.201V357.234z M419.564,343.875c0.532,0,0.88,0.199,1.04,0.6
			c0.16,0.4,0,0.895-0.48,1.48c-0.48,0.641-1.12,1.16-1.92,1.561c-0.8,0.398-1.414,0.6-1.84,0.6c-0.214-0.268-0.333-0.652-0.36-1.16
			c-0.028-0.506,0.066-1.027,0.28-1.561c0.266-0.586,0.68-0.986,1.24-1.199s1.212-0.32,1.96-0.32H419.564z"/>
		<path fill="#DCE0DF" d="M421.244,357.234c-0.268,0.16-0.72,0.469-1.36,0.92c-0.64,0.455-1.254,0.92-1.84,1.4
			c-0.587,0.48-1.147,0.947-1.68,1.4c-0.534,0.453-1.147,1-1.84,1.641c-0.426,0.318-0.692,0.426-0.8,0.318
			c-0.106-0.105-0.106-0.238,0-0.398c0.107-0.16,0.24-0.348,0.4-0.561c0.16-0.16,0.48-0.439,0.96-0.84s1.026-0.854,1.64-1.361
			c0.612-0.506,1.24-1.012,1.88-1.52c0.64-0.506,1.2-0.92,1.68-1.24c1.066-0.746,1.92-1.225,2.56-1.439
			c0.64-0.213,1.333-0.32,2.08-0.32c0.853-0.053,1.346,0.014,1.48,0.201c0.132,0.188-0.068,0.547-0.6,1.08
			c-0.748,0.799-1.44,1.613-2.08,2.439c-0.64,0.828-1.36,1.721-2.16,2.68c-0.693,0.854-1.28,1.613-1.76,2.279
			c-0.48,0.668-0.854,1.215-1.12,1.641c-0.48,0.908-0.56,1.494-0.24,1.76c0.212,0.268,0.492,0.334,0.84,0.201
			c0.346-0.133,0.706-0.281,1.08-0.441c0.426-0.211,0.972-0.545,1.64-1c0.666-0.451,1.292-0.945,1.88-1.479
			c0.853-0.693,1.6-1.307,2.24-1.842c0.64-0.531,1.173-1.012,1.6-1.439c0.212-0.105,0.426-0.24,0.64-0.4
			c0.212-0.16,0.373-0.186,0.48-0.08c0.106,0.107,0.052,0.281-0.16,0.521c-0.214,0.24-0.374,0.414-0.48,0.52
			c-0.48,0.48-1.214,1.146-2.2,2c-0.988,0.854-1.854,1.574-2.6,2.16c-0.8,0.641-1.828,1.348-3.08,2.119
			c-1.254,0.773-2.547,1.16-3.88,1.16c-0.854,0-1.48-0.199-1.88-0.6c-0.4-0.4-0.572-0.893-0.52-1.48c0-0.531,0.12-1.053,0.36-1.559
			c0.24-0.508,0.52-1,0.84-1.48c0.426-0.641,0.906-1.293,1.44-1.961c0.533-0.666,1.093-1.32,1.68-1.959
			c0.586-0.641,1.132-1.227,1.64-1.76c0.506-0.533,0.92-0.934,1.24-1.201V357.234z M432.444,343.875c0.532,0,0.88,0.199,1.04,0.6
			c0.16,0.4,0,0.895-0.48,1.48c-0.48,0.641-1.12,1.16-1.92,1.561c-0.8,0.398-1.414,0.6-1.84,0.6c-0.214-0.268-0.333-0.652-0.36-1.16
			c-0.028-0.506,0.066-1.027,0.28-1.561c0.266-0.586,0.68-0.986,1.24-1.199s1.212-0.32,1.96-0.32H432.444z"/>
		<path fill="#DCE0DF" d="M432.043,368.115c2.026-0.641,4.426-1.707,7.2-3.201c0.586-0.266,1.212-0.611,1.88-1.039
			c0.667-0.426,1.212-0.801,1.64-1.121c0.052-0.746,0.266-1.545,0.64-2.398c0.373-0.854,0.773-1.572,1.2-2.16
			c1.546-2.188,2.826-3.174,3.84-2.961c0.48,0.098,0.72,0.439,0.72,1.023c0,0.588-0.16,1.123-0.48,1.611
			c-0.268,0.439-0.774,1.098-1.52,1.977c-0.748,0.877-1.948,1.805-3.6,2.779c0.053,0.342,0.24,0.609,0.56,0.803
			c0.32,0.195,0.692,0.318,1.12,0.367c0.586,0.061,1.226-0.045,1.92-0.314c0.692-0.271,1.413-0.646,2.16-1.125
			c0.48-0.428,0.88-0.76,1.2-1c0.32-0.24,0.586-0.467,0.801-0.68c0.212-0.16,0.412-0.307,0.6-0.441
			c0.186-0.133,0.332-0.146,0.439-0.039c0.16,0.107-0.054,0.453-0.64,1.039c-0.268,0.268-0.56,0.52-0.88,0.76s-0.748,0.574-1.28,1
			c-0.694,0.48-1.44,0.881-2.24,1.201c-0.8,0.32-1.52,0.453-2.16,0.4c-0.587,0-1.094-0.16-1.52-0.48
			c-0.428-0.318-0.694-0.711-0.8-1.176c-0.428,0.256-0.92,0.527-1.48,0.811c-0.56,0.283-1.188,0.631-1.88,1.043
			c-1.228,0.619-2.494,1.211-3.8,1.779c-1.308,0.568-2.734,1.107-4.28,1.623c-1.067,0-1.84,0-2.32,0c-0.268,0-0.52-0.049-0.76-0.145
			c-0.24-0.094-0.388-0.334-0.44-0.719c-0.054-0.24,0-0.48,0.16-0.721c0.16-0.24,0.346-0.432,0.56-0.576
			c0.586-0.576,1.226-1.234,1.92-1.98c0.692-0.744,1.36-1.477,2-2.195c0.586-0.672,1.16-1.344,1.72-2.016s0.972-1.32,1.24-1.945
			c0.267-0.527,0.267-0.863,0-1.008c-0.107-0.094-0.28-0.131-0.52-0.107c-0.24,0.023-0.467,0.084-0.68,0.18
			c-0.428,0.191-0.934,0.469-1.52,0.828c-0.587,0.359-1.12,0.732-1.6,1.117c-0.587,0.479-1.2,0.959-1.84,1.439
			c-0.64,0.48-1.254,0.984-1.84,1.512c-0.212,0.145-0.412,0.275-0.6,0.395c-0.187,0.121-0.333,0.133-0.44,0.037
			c-0.106-0.096-0.08-0.238,0.08-0.432c0.16-0.191,0.32-0.336,0.48-0.432c0.587-0.527,1.306-1.152,2.16-1.873
			c0.853-0.721,1.652-1.344,2.4-1.873c0.96-0.67,1.92-1.246,2.88-1.727s1.866-0.721,2.72-0.721c1.652,0,2.4,0.934,2.24,2.801
			c-0.054,0.748-0.4,1.627-1.04,2.641c-0.64,1.014-1.36,2-2.16,2.959c-0.8,0.961-1.587,1.84-2.36,2.641
			c-0.774,0.799-1.374,1.387-1.8,1.76V368.115z"/>
		<path fill="#DCE0DF" d="M467.004,358.018c0.906-0.928,1.719-1.623,2.439-2.086c0.721-0.465,1.4-0.697,2.041-0.697
			c0.852-0.053,1.346,0.02,1.479,0.217s-0.014,0.516-0.439,0.955c-0.533,0.537-1.199,1.234-2,2.088s-1.627,1.77-2.48,2.744
			c-0.693,0.732-1.24,1.367-1.639,1.906c-0.4,0.537-0.789,1.096-1.16,1.682c-0.588,0.83-0.668,1.393-0.24,1.686
			c0.213,0.146,0.492,0.17,0.84,0.072c0.346-0.098,0.68-0.219,1-0.367c0.426-0.195,0.973-0.5,1.641-0.914
			c0.666-0.416,1.318-0.867,1.959-1.354c0.854-0.635,1.6-1.197,2.24-1.684c0.641-0.488,1.172-0.928,1.6-1.32
			c0.213-0.145,0.412-0.291,0.6-0.438s0.334-0.172,0.441-0.074c0.105,0.098,0.051,0.27-0.16,0.512
			c-0.215,0.246-0.375,0.416-0.48,0.514c-0.48,0.439-1.215,1.049-2.199,1.83c-0.988,0.781-1.855,1.441-2.602,1.977
			c-0.799,0.586-1.812,1.223-3.039,1.904c-1.229,0.684-2.508,1.025-3.84,1.025c-0.748,0-1.309-0.146-1.68-0.439
			c-0.375-0.293-0.588-0.658-0.641-1.098c-0.055-0.391,0.025-0.83,0.24-1.318c0.213-0.488,0.506-0.928,0.879-1.318h-0.08
			c-0.533,0.439-1.146,0.891-1.84,1.355c-0.693,0.463-1.428,0.902-2.199,1.316c-0.773,0.416-1.574,0.758-2.4,1.025
			c-0.827,0.27-1.613,0.428-2.359,0.477c-0.908,0.053-1.707-0.117-2.4-0.51c-0.692-0.393-0.986-1.199-0.88-2.42
			c0.107-0.535,0.32-1.133,0.64-1.793c0.32-0.658,0.853-1.379,1.6-2.16h-0.08l-0.72,0.721c-0.213,0.158-0.413,0.307-0.6,0.439
			c-0.187,0.133-0.333,0.146-0.44,0.039c-0.106-0.105-0.08-0.252,0.08-0.439c0.16-0.186,0.32-0.359,0.48-0.52
			c0.428-0.404,0.866-0.764,1.32-1.082c0.452-0.316,0.893-0.623,1.32-0.916c0.426-0.244,1-0.584,1.72-1.025
			c0.72-0.438,1.479-0.854,2.28-1.244c1.439-0.684,2.865-1.234,4.279-1.658c1.412-0.42,2.652-0.553,3.721-0.393
			c0.799,0.148,1.346,0.488,1.639,1.025s0.307,1.123,0.041,1.758H467.004z M464.844,356.035c-0.748,0-1.787,0.434-3.121,1.299
			c-1.332,0.865-2.719,1.945-4.159,3.244c-1.548,1.346-2.693,2.512-3.44,3.496c-0.747,0.986-1.094,1.719-1.039,2.199
			c0.053,0.48,0.4,0.721,1.039,0.721c0.747,0,1.787-0.336,3.121-1.008c1.332-0.672,2.531-1.467,3.6-2.381
			c0.641-0.527,1.279-1.094,1.92-1.695c0.641-0.6,1.227-1.188,1.76-1.766c0.533-0.576,0.973-1.117,1.32-1.623
			c0.346-0.504,0.52-0.9,0.52-1.189c0.053-0.865-0.428-1.297-1.439-1.297H464.844z"/>
		<path fill="#DCE0DF" d="M507.883,332.754c1.865,0,3.68,0.295,5.439,0.881c1.76,0.588,3.174,1.467,4.24,2.641
			c0.586-0.16,1.266-0.307,2.041-0.441c0.771-0.131,1.531-0.199,2.279-0.199c1.279-0.053,2.52,0,3.721,0.158
			c1.199,0.16,2.252,0.465,3.16,0.916c0.906,0.451,1.586,1.074,2.039,1.869s0.572,1.801,0.359,3.02
			c-0.213,1.221-0.854,2.295-1.92,3.223s-2.334,1.695-3.799,2.307c-1.469,0.609-3.055,1.059-4.76,1.35
			c-1.709,0.293-3.334,0.438-4.881,0.438c-2.24,0-4.453-0.266-6.641-0.799s-4-1.332-5.439-2.4c-1.494,1.334-2.881,2.775-4.16,4.328
			c-1.279,1.551-2.387,3.098-3.32,4.643c-0.934,1.543-1.652,3.061-2.16,4.553c-0.506,1.49-0.76,2.863-0.76,4.119
			c0,2.303,0.641,3.939,1.92,4.906c1.281,0.967,2.934,1.451,4.961,1.451c2.4,0,4.545-0.428,6.439-1.279
			c1.893-0.854,3.613-1.787,5.16-2.801c0.906-0.641,1.852-1.373,2.84-2.199c0.986-0.826,1.666-1.453,2.041-1.881
			c0.105-0.105,0.252-0.24,0.439-0.4c0.186-0.16,0.332-0.186,0.439-0.08c0.107,0.107,0.121,0.254,0.041,0.441
			s-0.174,0.332-0.281,0.439c-0.213,0.213-0.52,0.508-0.92,0.879c-0.4,0.375-0.84,0.775-1.32,1.201
			c-0.479,0.428-0.986,0.84-1.52,1.24s-1.014,0.732-1.439,1c-1.654,1.174-3.48,2.199-5.48,3.08c-2,0.879-4.199,1.371-6.6,1.479
			c-3.309,0.107-6.027-0.451-8.16-1.67c-2.135-1.223-3.254-3.229-3.359-6.021c-0.055-1.676,0.291-3.363,1.039-5.064
			c0.746-1.701,1.732-3.363,2.961-4.988c1.225-1.625,2.639-3.16,4.24-4.607c1.6-1.447,3.225-2.729,4.879-3.846
			c-0.588-0.711-1.066-1.473-1.439-2.285c-0.375-0.812-0.561-1.65-0.561-2.514c0-1.066,0.227-2.031,0.68-2.895
			c0.453-0.861,1.053-1.611,1.801-2.246c0.746-0.635,1.611-1.117,2.6-1.447c0.986-0.33,2.012-0.496,3.08-0.496H507.883z
			 M507.162,333.795c-1.707,0-3.213,0.539-4.52,1.617s-1.959,2.613-1.959,4.605c0,0.748,0.172,1.508,0.52,2.279
			c0.346,0.773,0.785,1.508,1.32,2.201c2.186-1.441,4.479-2.746,6.879-3.92s4.721-2.08,6.961-2.721
			c-1.229-1.305-2.654-2.307-4.281-3.01c-1.627-0.701-3.24-1.053-4.84-1.053H507.162z M516.043,348.115
			c1.439,0,2.84-0.166,4.199-0.5c1.361-0.332,2.586-0.818,3.68-1.455c1.094-0.639,2.027-1.387,2.801-2.246
			c0.773-0.861,1.266-1.789,1.48-2.787c0.426-1.941,0.066-3.355-1.08-4.242c-1.148-0.887-2.787-1.303-4.92-1.25
			c-0.641,0.057-1.375,0.168-2.201,0.334s-1.479,0.359-1.959,0.582c0.32,0.609,0.586,1.316,0.799,2.121s0.373,1.596,0.48,2.371
			c0.053,0.666,0.053,1.207,0,1.623s-0.133,0.568-0.24,0.457c-0.107-0.057-0.146-0.193-0.119-0.416
			c0.025-0.223-0.041-0.639-0.199-1.248c-0.16-0.832-0.428-1.678-0.801-2.537c-0.373-0.861-0.748-1.539-1.121-2.039
			c-2.133,0.832-4.318,1.996-6.559,3.494s-4.215,3.051-5.92,4.658c1.385,1.111,3.119,1.9,5.199,2.373
			c2.08,0.471,4.213,0.707,6.4,0.707H516.043z"/>
		<path fill="#DCE0DF" d="M519.002,360.49c-0.268,0.24-0.533,0.469-0.801,0.686c-0.268,0.215-0.533,0.443-0.799,0.684
			c-0.213,0.145-0.412,0.275-0.6,0.395c-0.188,0.121-0.334,0.133-0.441,0.037c-0.105-0.096-0.08-0.227,0.08-0.396
			c0.16-0.168,0.32-0.324,0.48-0.467c0.428-0.385,0.865-0.732,1.32-1.045c0.451-0.312,0.893-0.611,1.32-0.9
			c0.426-0.24,1-0.574,1.719-1.008c0.721-0.432,1.48-0.838,2.281-1.223c1.225-0.625,2.426-1.092,3.6-1.404
			c1.172-0.312,2.213-0.516,3.119-0.613c0.213-0.053,0.441-0.066,0.68-0.039c0.24,0.027,0.414,0.039,0.521,0.039
			c0,0.098-0.107,0.172-0.32,0.221c-0.215,0.049-0.4,0.123-0.561,0.221c-1.814,0.781-3.734,2.123-5.76,4.027
			c-0.533,0.488-1.068,1.027-1.6,1.611c-0.533,0.586-1.014,1.174-1.439,1.76c-0.428,0.586-0.789,1.146-1.08,1.684
			c-0.295,0.539-0.469,1.002-0.521,1.393c-0.107,0.83,0.268,1.244,1.121,1.244c0.906,0,2.066-0.422,3.48-1.266
			c1.412-0.846,2.732-1.895,3.959-3.148c0.053-0.385,0.172-0.832,0.359-1.34c0.188-0.506,0.547-1.074,1.08-1.701
			c0.428-0.529,0.893-0.951,1.4-1.266c0.506-0.314,0.893-0.52,1.16-0.617c0.105-0.24,0.172-0.553,0.199-0.939
			s0.041-0.676,0.041-0.869c-0.107-0.385-0.188-0.639-0.24-0.76c-0.053-0.119,0-0.205,0.16-0.254
			c0.105-0.105,0.279-0.094,0.52,0.033s0.441,0.266,0.602,0.416c0.799,0.648,1.119,1.52,0.959,2.617
			c-0.107,0.896-0.588,1.867-1.439,2.914c-0.854,1.047-1.895,2.094-3.121,3.141c0.16,0.117,0.387,0.164,0.68,0.133
			c0.293-0.029,0.572-0.072,0.84-0.129s0.641-0.191,1.121-0.404s1.012-0.533,1.6-0.961c0.533-0.371,1.027-0.771,1.48-1.199
			c0.453-0.426,0.893-0.801,1.32-1.119c0.16-0.16,0.332-0.307,0.52-0.441c0.186-0.133,0.332-0.146,0.439-0.039
			c0.16,0.107-0.053,0.453-0.639,1.039c-0.375,0.375-0.801,0.773-1.281,1.201c-0.479,0.428-0.986,0.826-1.52,1.199
			c-0.641,0.48-1.213,0.824-1.721,1.031s-0.947,0.371-1.32,0.488c-0.268,0.086-0.627,0.119-1.08,0.098s-0.812-0.107-1.078-0.258
			c-0.535,0.322-1.148,0.68-1.842,1.066c-0.693,0.389-1.439,0.732-2.238,1.035c-0.801,0.303-1.641,0.562-2.521,0.777
			c-0.879,0.215-1.719,0.322-2.52,0.322c-1.227,0-2.213-0.275-2.959-0.828c-0.748-0.553-1.066-1.332-0.961-2.34
			c0.107-0.816,0.359-1.609,0.76-2.377s0.893-1.463,1.48-2.088V360.49z"/>
		<path fill="#DCE0DF" d="M543.801,357.053c-0.268,0.146-0.721,0.424-1.361,0.838c-0.639,0.412-1.254,0.836-1.84,1.271
			c-0.588,0.436-1.146,0.877-1.68,1.324c-0.533,0.445-1.148,0.988-1.84,1.629c-0.426,0.32-0.693,0.428-0.801,0.32
			c-0.105-0.107-0.105-0.24,0-0.4c0.107-0.16,0.24-0.32,0.4-0.48s0.467-0.439,0.92-0.84s0.986-0.832,1.6-1.293
			c0.613-0.463,1.24-0.926,1.881-1.387s1.227-0.859,1.76-1.201c1.066-0.678,1.92-1.102,2.561-1.271
			c0.639-0.17,1.332-0.279,2.08-0.328c0.852,0,1.332,0.08,1.439,0.24c0.105,0.16-0.08,0.508-0.561,1.041
			c-0.533,0.586-1.16,1.318-1.879,2.199c-0.721,0.881-1.48,1.801-2.281,2.76c-0.639,0.854-1.24,1.68-1.799,2.48
			c-0.561,0.799-0.947,1.414-1.16,1.84c-0.32,0.693-0.375,1.146-0.16,1.359c0.32,0.32,0.932,0.295,1.84-0.08
			c0.906-0.479,1.84-1.066,2.801-1.76c0.959-0.691,2.051-1.492,3.279-2.4c1.812-1.332,3.387-2.572,4.721-3.719
			c1.332-1.146,2.639-2.227,3.92-3.24c0.318-0.266,0.639-0.453,0.959-0.561c0.32-0.105,0.773-0.16,1.359-0.16
			c0.693,0,1.188,0.059,1.48,0.176c0.293,0.119,0.201,0.438-0.279,0.955c-0.748,0.799-1.439,1.518-2.08,2.152
			s-1.359,1.461-2.16,2.477c-0.693,0.854-1.307,1.641-1.84,2.361c-0.533,0.719-0.908,1.293-1.121,1.719
			c-0.266,0.428-0.398,0.801-0.398,1.121s0.053,0.533,0.16,0.639c0.371,0.215,0.986,0.135,1.84-0.238
			c0.426-0.213,0.973-0.547,1.639-1s1.32-0.947,1.961-1.48c0.799-0.641,1.533-1.24,2.199-1.801s1.213-1.053,1.641-1.48
			c0.213-0.105,0.412-0.238,0.6-0.398s0.332-0.188,0.439-0.08s0.053,0.279-0.158,0.52c-0.215,0.24-0.375,0.414-0.48,0.52
			c-0.48,0.48-1.174,1.135-2.08,1.961c-0.908,0.826-1.814,1.559-2.721,2.199c-0.799,0.641-1.812,1.334-3.039,2.08
			c-1.229,0.746-2.508,1.119-3.84,1.119c-1.654,0-2.48-0.639-2.48-1.92c0-0.586,0.133-1.158,0.4-1.719
			c0.266-0.561,0.559-1.08,0.879-1.561c0.426-0.641,0.906-1.24,1.439-1.801c0.533-0.559,1.094-1.131,1.682-1.719l-0.16-0.145
			c-0.854,0.736-1.787,1.492-2.801,2.264c-1.014,0.773-1.973,1.508-2.879,2.201c-1.654,1.227-3.188,2.268-4.602,3.119
			c-1.412,0.854-2.732,1.279-3.959,1.279c-0.854,0-1.52-0.188-2-0.559c-0.48-0.373-0.693-0.934-0.641-1.68
			c0.055-0.428,0.215-0.92,0.48-1.48c0.268-0.561,0.561-1.08,0.879-1.561c0.588-0.799,1.4-1.791,2.441-2.973
			c1.039-1.184,2.172-2.309,3.4-3.375V357.053z"/>
		<path fill="#DCE0DF" d="M566.52,358.703c-0.588,0.545-1.254,1.127-2,1.744c-0.748,0.617-1.334,1.1-1.76,1.445
			c-0.16,0.148-0.332,0.271-0.52,0.371s-0.334,0.1-0.441,0c-0.105-0.1-0.08-0.248,0.08-0.445s0.32-0.346,0.48-0.445
			c1.066-0.889,2.213-1.84,3.439-2.854s2.213-1.842,2.961-2.484c-0.533,0-0.988,0.014-1.359,0.039
			c-0.375,0.027-0.881,0.041-1.521,0.041c-0.639,0.107-0.934-0.027-0.879-0.4c0.053-0.213,0.771-0.373,2.16-0.48
			c0.479,0,0.852,0,1.119,0c0.32,0,0.693,0,1.121,0c1.225-1.545,2.559-3.092,4-4.639c1.439-1.547,2.611-2.773,3.52-3.682
			c0.746-0.746,1.561-1.479,2.439-2.199c0.881-0.721,1.746-1.08,2.6-1.08c0.428,0,0.707,0.055,0.84,0.16
			c0.133,0.107,0.254,0.213,0.361,0.32c-0.48,0.428-1.188,1.133-2.121,2.119c-0.934,0.988-1.854,2.014-2.76,3.08
			c-0.908,1.068-1.748,2.055-2.52,2.961c-0.773,0.906-1.561,1.893-2.359,2.959c0.906,0,1.732,0,2.479,0s1.441,0,2.08,0
			c0.268,0,0.547,0,0.84,0s0.387,0,0.281,0c-0.107,0.48-0.295,0.721-0.561,0.721c-0.268,0-0.561,0-0.881,0c-0.906,0-1.732,0-2.479,0
			c-0.695,0-1.494,0.027-2.4,0.08c-0.373,0.445-0.828,1-1.359,1.668c-0.535,0.668-1.068,1.371-1.602,2.113s-1.039,1.496-1.52,2.262
			c-0.48,0.768-0.908,1.471-1.279,2.113c-0.268,0.395-0.414,0.803-0.441,1.223s0.121,0.73,0.441,0.928
			c0.266,0.148,0.572,0.174,0.92,0.074c0.346-0.1,0.68-0.223,1-0.371c0.426-0.248,0.973-0.557,1.639-0.928
			c0.668-0.369,1.32-0.803,1.961-1.297c0.746-0.543,1.467-1.086,2.16-1.631c0.691-0.543,1.252-1.014,1.68-1.41
			c0.213-0.146,0.412-0.283,0.6-0.406s0.334-0.135,0.441-0.037c0.105,0.1,0.051,0.26-0.16,0.48c-0.215,0.223-0.375,0.385-0.48,0.484
			c-0.48,0.443-1.174,1.049-2.08,1.814c-0.908,0.768-1.814,1.447-2.721,2.039c-0.373,0.299-0.826,0.619-1.359,0.965
			s-1.119,0.666-1.76,0.963s-1.32,0.557-2.041,0.779c-0.719,0.223-1.453,0.334-2.199,0.334c-0.908,0-1.547-0.211-1.92-0.631
			s-0.533-0.9-0.48-1.445c0.107-0.939,0.561-2.039,1.359-3.299c0.801-1.26,1.787-2.607,2.961-4.041V358.703z"/>
		<path fill="#DCE0DF" d="M582.76,357.053c-0.268,0.146-0.721,0.424-1.361,0.838c-0.639,0.412-1.254,0.836-1.84,1.271
			c-0.588,0.436-1.146,0.877-1.68,1.324c-0.533,0.445-1.148,0.988-1.84,1.629c-0.426,0.32-0.693,0.428-0.801,0.32
			c-0.105-0.107-0.105-0.24,0-0.4c0.107-0.16,0.24-0.32,0.4-0.48s0.467-0.439,0.92-0.84s0.986-0.832,1.6-1.293
			c0.613-0.463,1.24-0.926,1.881-1.387s1.227-0.859,1.76-1.201c1.066-0.678,1.92-1.102,2.561-1.271
			c0.639-0.17,1.332-0.279,2.08-0.328c0.852,0,1.332,0.08,1.439,0.24c0.105,0.16-0.08,0.508-0.561,1.041
			c-0.533,0.586-1.16,1.318-1.879,2.199c-0.721,0.881-1.48,1.801-2.281,2.76c-0.639,0.854-1.24,1.68-1.799,2.48
			c-0.561,0.799-0.947,1.414-1.16,1.84c-0.32,0.693-0.375,1.146-0.16,1.359c0.32,0.32,0.932,0.295,1.84-0.08
			c0.906-0.479,1.84-1.066,2.801-1.76c0.959-0.691,2.051-1.492,3.279-2.4c1.812-1.332,3.387-2.572,4.721-3.719
			c1.332-1.146,2.639-2.227,3.92-3.24c0.318-0.266,0.639-0.453,0.959-0.561c0.32-0.105,0.773-0.16,1.359-0.16
			c0.693,0,1.188,0.059,1.48,0.176c0.293,0.119,0.201,0.438-0.279,0.955c-0.748,0.799-1.439,1.518-2.08,2.152
			s-1.359,1.461-2.16,2.477c-0.693,0.854-1.307,1.641-1.84,2.361c-0.533,0.719-0.908,1.293-1.121,1.719
			c-0.266,0.428-0.398,0.801-0.398,1.121s0.053,0.533,0.16,0.639c0.371,0.215,0.986,0.135,1.84-0.238
			c0.426-0.213,0.973-0.547,1.639-1s1.32-0.947,1.961-1.48c0.799-0.641,1.533-1.24,2.199-1.801s1.213-1.053,1.641-1.48
			c0.213-0.105,0.412-0.238,0.6-0.398s0.332-0.188,0.439-0.08s0.053,0.279-0.158,0.52c-0.215,0.24-0.375,0.414-0.48,0.52
			c-0.48,0.48-1.174,1.135-2.08,1.961c-0.908,0.826-1.814,1.559-2.721,2.199c-0.799,0.641-1.812,1.334-3.039,2.08
			c-1.229,0.746-2.508,1.119-3.84,1.119c-1.654,0-2.48-0.639-2.48-1.92c0-0.586,0.133-1.158,0.4-1.719
			c0.266-0.561,0.559-1.08,0.879-1.561c0.426-0.641,0.906-1.24,1.439-1.801c0.533-0.559,1.094-1.131,1.682-1.719l-0.16-0.145
			c-0.854,0.736-1.787,1.492-2.801,2.264c-1.014,0.773-1.973,1.508-2.879,2.201c-1.654,1.227-3.188,2.268-4.602,3.119
			c-1.412,0.854-2.732,1.279-3.959,1.279c-0.854,0-1.52-0.188-2-0.559c-0.48-0.373-0.693-0.934-0.641-1.68
			c0.055-0.428,0.215-0.92,0.48-1.48c0.268-0.561,0.561-1.08,0.879-1.561c0.588-0.799,1.4-1.791,2.441-2.973
			c1.039-1.184,2.172-2.309,3.4-3.375V357.053z"/>
		<path fill="#DCE0DF" d="M615.639,356.826c0,0.506-0.387,1.139-1.16,1.896s-1.613,1.641-2.52,2.65
			c-0.641,0.709-1.201,1.379-1.68,2.01c-0.48,0.633-0.828,1.15-1.041,1.553c-0.373,0.658-0.4,1.139-0.08,1.441
			c0.16,0.1,0.412,0.113,0.76,0.037s0.68-0.189,1-0.342c0.428-0.252,0.973-0.568,1.641-0.945c0.666-0.379,1.32-0.822,1.959-1.328
			c0.906-0.656,1.654-1.225,2.24-1.705c0.588-0.48,1.146-0.947,1.682-1.402c0.105-0.15,0.266-0.301,0.479-0.453
			s0.373-0.178,0.48-0.078c0.105,0.102,0.053,0.279-0.16,0.531c-0.213,0.254-0.373,0.432-0.48,0.531
			c-0.479,0.455-1.146,1.049-2,1.781s-1.787,1.453-2.799,2.16c-0.854,0.605-1.92,1.262-3.201,1.969
			c-1.279,0.709-2.586,1.062-3.92,1.062c-0.854,0-1.492-0.193-1.92-0.58c-0.428-0.385-0.613-0.861-0.559-1.426
			c0.051-0.875,0.479-1.799,1.279-2.777c0.801-0.977,1.652-1.877,2.561-2.699c0.479-0.463,1.012-0.928,1.6-1.389
			c0.586-0.463,1.133-0.889,1.641-1.273c0.506-0.385,0.945-0.732,1.318-1.041s0.588-0.539,0.641-0.695
			c0.16-0.41-0.08-0.629-0.721-0.654c-0.639-0.025-1.467-0.014-2.479,0.037c-0.48,0.053-0.854,0.064-1.121,0.039
			s-0.508-0.09-0.719-0.193c-0.32,0.361-0.762,0.799-1.32,1.312c-0.561,0.514-1.135,1.055-1.721,1.619
			c-0.641,0.617-1.279,1.197-1.92,1.736c-0.641,0.541-1.174,1.016-1.6,1.426c-0.533,0.414-0.881,0.541-1.041,0.387
			c-0.105-0.102-0.08-0.244,0.08-0.426c0.16-0.18,0.32-0.32,0.48-0.422c0.533-0.463,1.08-0.951,1.641-1.467
			c0.559-0.514,1.186-1.105,1.879-1.773c0.533-0.514,1.08-1.027,1.641-1.543c0.561-0.514,0.973-0.9,1.24-1.158
			c-0.373-0.266-0.574-0.639-0.6-1.119c-0.027-0.48,0.172-0.961,0.6-1.439c0.746-0.906,1.76-1.361,3.039-1.361
			c0.32,0,0.613,0.068,0.881,0.201c0.266,0.133,0.453,0.332,0.561,0.6c-0.268,0.23-0.494,0.418-0.682,0.562
			c-0.188,0.146-0.412,0.361-0.68,0.65c-0.533,0.635-0.76,1.098-0.68,1.387s0.387,0.463,0.92,0.52
			c1.121,0.051,2.16,0.141,3.121,0.268c0.959,0.125,1.439,0.541,1.439,1.25V356.826z"/>
		<path fill="#DCE0DF" d="M631.396,355.234c0.801,0,1.4,0.215,1.801,0.643c0.4,0.426,0.572,0.83,0.52,1.209
			c-0.107,0.949-0.68,1.781-1.721,2.494c-1.039,0.713-2.174,1.328-3.398,1.852c-1.229,0.521-2.48,0.973-3.76,1.354
			c-1.281,0.379-2.348,0.688-3.201,0.924c-0.16,0.285-0.268,0.561-0.32,0.82c-0.053,0.262-0.107,0.51-0.16,0.748
			c-0.053,0.523,0.094,0.914,0.441,1.176c0.346,0.26,0.812,0.414,1.398,0.461c0.906,0,1.947-0.211,3.121-0.639
			c1.172-0.428,2.561-1.174,4.16-2.24c0.906-0.586,1.84-1.266,2.799-2.041c0.961-0.771,1.732-1.451,2.32-2.039
			c0.16-0.16,0.348-0.307,0.561-0.439s0.373-0.146,0.48-0.041c0.105,0.107,0.053,0.295-0.16,0.561
			c-0.215,0.268-0.375,0.453-0.48,0.561c-0.588,0.586-1.32,1.238-2.199,1.959c-0.881,0.721-1.828,1.453-2.84,2.199
			c-3.414,2.295-6.535,3.441-9.361,3.441c-1.494,0-2.613-0.264-3.359-0.791s-1.092-1.25-1.041-2.162
			c0.107-0.672,0.32-1.342,0.641-2.016c0.32-0.672,0.746-1.318,1.279-1.943h-0.078l-0.641,0.639c-0.213,0.16-0.412,0.309-0.6,0.441
			s-0.334,0.146-0.441,0.039c-0.105-0.105-0.08-0.252,0.08-0.439s0.32-0.361,0.48-0.521c0.428-0.395,0.867-0.746,1.32-1.059
			s0.893-0.611,1.32-0.9c0.426-0.24,0.986-0.564,1.68-0.971c0.691-0.408,1.412-0.805,2.16-1.189
			c1.172-0.527,2.387-1.006,3.641-1.439c1.252-0.432,2.412-0.648,3.479-0.648H631.396z M622.117,363.955
			c0.799-0.266,1.705-0.6,2.721-1c1.012-0.4,1.945-0.893,2.799-1.48c1.014-0.691,1.801-1.412,2.359-2.16
			c0.561-0.746,0.867-1.412,0.92-2c0.16-0.691-0.158-1.039-0.959-1.039c-0.373,0.053-0.854,0.24-1.439,0.559
			c-0.588,0.32-1.281,0.855-2.08,1.602c-0.641,0.586-1.4,1.439-2.281,2.559c-0.879,1.121-1.559,2.08-2.039,2.881V363.955z"/>
	</g>
</g>
<g>
	<path fill="#DCE0DF" d="M401.168,124.901c1.684-0.739,3.286-1.438,4.806-2.095c1.519-0.656,3.101-1.297,4.744-1.919
		c1.109-1.622,2.27-3.059,3.481-4.313c1.211-1.254,2.434-2.288,3.667-3.099c1.272-0.811,2.546-1.273,3.82-1.389
		c0.493-0.041,0.986,0.041,1.479,0.243c0.493,0.202,0.698,0.613,0.616,1.232c-0.083,0.911-0.832,1.849-2.249,2.814
		c-1.417,0.966-3.173,1.83-5.268,2.595c-0.288,0.11-0.565,0.219-0.832,0.328c-0.268,0.11-0.545,0.2-0.832,0.273
		c-0.576,0.947-1.15,1.922-1.725,2.923c-0.576,1.001-1.109,1.922-1.602,2.76c-1.192,2.04-2.517,3.788-3.974,5.245
		c-1.458,1.458-3.041,2.659-4.745,3.606c-1.705,0.947-3.492,1.667-5.361,2.157c-1.87,0.492-3.811,0.792-5.823,0.901
		c-1.644,0.082-3.389,0.006-5.237-0.228c-1.849-0.235-3.451-0.757-4.806-1.566c-1.15,0.88-2.167,1.799-3.05,2.759
		c-0.883,0.958-1.509,1.848-1.879,2.67c-0.205,0.41-0.37,0.595-0.493,0.555c-0.082-0.042-0.113-0.154-0.092-0.339
		c0.021-0.185,0.052-0.319,0.092-0.4c0.329-0.904,0.894-1.864,1.694-2.878c0.801-1.015,1.776-1.98,2.927-2.895
		c-0.657-0.493-1.223-1.161-1.694-2.006c-0.473-0.844-0.668-1.829-0.585-2.956c0.124-1.302,0.647-2.445,1.571-3.432
		c0.924-0.985,2.034-1.82,3.328-2.507c1.294-0.686,2.659-1.213,4.097-1.583c1.438-0.37,2.731-0.589,3.882-0.66
		c0.821-0.077,1.715-0.086,2.681-0.027c0.964,0.06,1.919,0.211,2.865,0.458c0.944,0.247,1.807,0.585,2.588,1.017
		c0.78,0.432,1.396,0.997,1.848,1.695L401.168,124.901z M400.059,124.337c-0.329-0.468-0.842-0.839-1.541-1.115
		c-0.699-0.275-1.469-0.488-2.311-0.64c-0.842-0.151-1.715-0.254-2.619-0.309c-0.904-0.055-1.725-0.042-2.465,0.041
		c-1.068,0.056-2.208,0.214-3.419,0.476c-1.212,0.262-2.342,0.643-3.389,1.145c-1.047,0.502-1.931,1.287-2.649,2.355
		c-0.719,1.069-1.14,2.321-1.263,3.759c-0.083,1.068,0.01,2.023,0.277,2.865c0.267,0.842,0.626,1.531,1.078,2.064
		c0.247-0.247,0.524-0.493,0.832-0.739s0.605-0.493,0.894-0.739c0.575-0.452,1.18-0.883,1.817-1.294
		c0.637-0.41,1.284-0.842,1.941-1.294c-0.739-0.657-1.17-1.438-1.294-2.342c-0.042-0.123-0.042-0.267,0-0.431
		c0.041-0.164,0.102-0.226,0.185-0.185c0.082,0,0.113,0.052,0.092,0.154c-0.021,0.103,0.01,0.215,0.092,0.339
		c0.287,0.863,0.78,1.582,1.479,2.157c1.314-0.821,2.68-1.602,4.098-2.342c1.417-0.739,2.804-1.417,4.159-2.033l4.066-1.849
		L400.059,124.337z M392.85,132.85c-0.74,0-1.531-0.102-2.373-0.308c-0.842-0.205-1.612-0.534-2.311-0.986
		c-0.658,0.452-1.284,0.852-1.879,1.198c-0.596,0.347-1.201,0.676-1.817,0.988c-0.33,0.17-0.668,0.348-1.017,0.532
		c-0.35,0.185-0.688,0.375-1.017,0.573c1.15,0.766,2.608,1.271,4.375,1.516c1.766,0.247,3.471,0.307,5.114,0.184
		c3.286-0.244,6.171-1.262,8.657-3.056c2.485-1.793,4.837-4.431,7.055-7.913c0.452-0.696,0.903-1.357,1.355-1.984
		c0.452-0.626,0.903-1.236,1.355-1.828v-0.068c-1.52,0.566-2.988,1.132-4.405,1.698c-1.417,0.566-2.887,1.171-4.406,1.812
		c0.247,0.491,0.37,1.075,0.37,1.755c-0.042,0.944-0.35,1.784-0.924,2.52c-0.576,0.736-1.294,1.349-2.157,1.84
		c-0.862,0.491-1.817,0.869-2.865,1.132c-1.047,0.264-2.064,0.396-3.05,0.396H392.85z M392.789,132.234
		c0.821,0,1.684-0.235,2.588-0.705c0.903-0.47,1.725-0.975,2.464-1.515c0.74-0.539,1.356-1.169,1.849-1.888
		c0.493-0.718,0.76-1.509,0.801-2.372c0-0.575-0.062-1.068-0.185-1.479c-0.658,0.33-1.325,0.647-2.002,0.955
		s-1.387,0.627-2.126,0.955c-1.027,0.493-2.198,1.109-3.512,1.849c-1.315,0.739-2.649,1.562-4.005,2.465
		c0.698,0.65,1.406,1.103,2.125,1.356c0.718,0.253,1.365,0.379,1.941,0.379H392.789z M415.032,118.062
		c0.164-0.082,0.339-0.154,0.523-0.216c0.185-0.062,0.359-0.133,0.524-0.216c0.863-0.37,1.694-0.76,2.496-1.17
		c0.801-0.41,1.53-0.852,2.188-1.325c0.656-0.472,1.201-0.964,1.633-1.479c0.431-0.513,0.667-1.017,0.708-1.51
		c0.082-0.452-0.031-0.77-0.339-0.955c-0.308-0.185-0.668-0.236-1.078-0.154c-0.863,0.123-1.808,0.699-2.834,1.725
		c-0.576,0.534-1.202,1.274-1.879,2.218c-0.678,0.945-1.325,1.952-1.941,3.019V118.062z"/>
	<path fill="#DCE0DF" d="M416.08,128.722c-0.206,0.123-0.555,0.36-1.048,0.708c-0.493,0.35-0.965,0.708-1.417,1.078
		c-0.453,0.37-0.884,0.73-1.294,1.079c-0.411,0.349-0.884,0.77-1.417,1.263c-0.328,0.246-0.533,0.329-0.616,0.246
		c-0.082-0.082-0.082-0.185,0-0.308c0.083-0.123,0.185-0.267,0.308-0.431c0.124-0.123,0.37-0.339,0.74-0.647
		s0.791-0.657,1.263-1.047c0.472-0.39,0.955-0.78,1.448-1.171c0.493-0.39,0.924-0.708,1.294-0.955
		c0.821-0.575,1.479-0.944,1.972-1.109c0.493-0.164,1.026-0.247,1.602-0.247c0.657-0.041,1.037,0.011,1.14,0.154
		c0.102,0.145-0.052,0.422-0.462,0.832c-0.576,0.616-1.109,1.243-1.602,1.879c-0.493,0.637-1.047,1.325-1.664,2.064
		c-0.534,0.658-0.986,1.243-1.355,1.756c-0.37,0.514-0.658,0.935-0.863,1.263c-0.37,0.699-0.431,1.15-0.185,1.355
		c0.164,0.206,0.379,0.257,0.647,0.154c0.267-0.102,0.544-0.215,0.832-0.339c0.329-0.164,0.749-0.42,1.263-0.77
		c0.513-0.349,0.996-0.729,1.448-1.14c0.657-0.533,1.232-1.006,1.725-1.417c0.493-0.41,0.903-0.78,1.232-1.109
		c0.164-0.082,0.328-0.185,0.493-0.308c0.164-0.124,0.287-0.144,0.37-0.062c0.082,0.083,0.041,0.216-0.124,0.401
		c-0.165,0.185-0.288,0.318-0.37,0.4c-0.37,0.37-0.935,0.884-1.694,1.541c-0.761,0.657-1.428,1.212-2.002,1.664
		c-0.616,0.493-1.408,1.038-2.373,1.633c-0.965,0.595-1.962,0.894-2.988,0.894c-0.658,0-1.14-0.154-1.448-0.462
		c-0.308-0.308-0.441-0.688-0.401-1.14c0-0.41,0.093-0.811,0.277-1.202c0.185-0.39,0.4-0.77,0.647-1.14
		c0.329-0.493,0.698-0.995,1.109-1.509c0.41-0.513,0.841-1.017,1.294-1.51c0.451-0.493,0.872-0.944,1.263-1.355
		c0.39-0.41,0.708-0.718,0.955-0.924V128.722z M424.706,118.432c0.41,0,0.678,0.154,0.801,0.462c0.123,0.308,0,0.688-0.37,1.14
		c-0.37,0.493-0.863,0.893-1.479,1.201s-1.089,0.462-1.417,0.462c-0.165-0.205-0.257-0.502-0.277-0.894
		c-0.021-0.39,0.051-0.791,0.216-1.202c0.205-0.451,0.523-0.759,0.955-0.924c0.432-0.164,0.934-0.246,1.51-0.246H424.706z"/>
	<path fill="#DCE0DF" d="M433.702,137.163c-0.576,0-1.038-0.133-1.387-0.4c-0.35-0.267-0.483-0.626-0.4-1.079
		c0.082-0.698,0.4-1.427,0.955-2.187c0.555-0.76,1.099-1.468,1.633-2.126c0.452-0.575,0.894-1.109,1.325-1.602
		s0.852-0.965,1.263-1.417c0.123-0.164,0.205-0.329,0.247-0.493c0.041-0.164-0.021-0.287-0.185-0.37
		c-0.165-0.082-0.421-0.062-0.77,0.062c-0.35,0.123-0.627,0.226-0.832,0.308c-0.576,0.288-1.273,0.688-2.095,1.202
		c-0.822,0.514-1.726,1.161-2.711,1.941c-0.657,0.534-1.263,1.027-1.817,1.479c-0.555,0.453-1.1,0.894-1.633,1.325
		c-0.535,0.431-1.069,0.873-1.602,1.325c-0.535,0.452-1.151,0.945-1.849,1.479c-0.493,0.37-1.027,0.555-1.602,0.555
		c-0.453,0-0.761-0.047-0.924-0.143c-0.165-0.094-0.123-0.352,0.123-0.77c0.329-0.532,0.718-1.13,1.171-1.796
		c0.452-0.666,0.965-1.34,1.541-2.025c0.493-0.608,0.903-1.103,1.232-1.483c0.328-0.38,0.759-0.875,1.294-1.483
		c0.451-0.457,0.575-0.779,0.37-0.97c-0.083-0.113-0.216-0.152-0.4-0.114c-0.185,0.039-0.36,0.095-0.524,0.171
		c-0.329,0.152-0.719,0.372-1.171,0.656c-0.452,0.285-0.862,0.58-1.232,0.884c-0.452,0.38-0.924,0.76-1.417,1.141
		s-0.966,0.78-1.417,1.198c-0.164,0.114-0.318,0.219-0.462,0.314c-0.144,0.095-0.256,0.105-0.339,0.029
		c-0.082-0.076-0.062-0.191,0.062-0.343c0.124-0.152,0.247-0.266,0.37-0.343c0.453-0.418,1.006-0.913,1.664-1.483
		c0.656-0.57,1.272-1.064,1.848-1.483c0.74-0.531,1.479-0.988,2.218-1.368c0.74-0.38,1.438-0.571,2.095-0.571
		c0.575,0,0.975,0.142,1.202,0.423c0.225,0.282,0.339,0.573,0.339,0.874c0,0.339-0.134,0.714-0.401,1.128
		c-0.268,0.414-0.565,0.827-0.893,1.241c-0.453,0.564-0.924,1.137-1.417,1.72c-0.493,0.583-0.904,1.101-1.232,1.551l0.185,0.062
		c0.739-0.567,1.541-1.18,2.403-1.838c0.863-0.657,1.828-1.362,2.896-2.114c1.068-0.752,2.218-1.448,3.451-2.087
		s2.32-0.959,3.266-0.959c0.657,0,1.16,0.132,1.51,0.395c0.349,0.264,0.482,0.64,0.4,1.128c-0.083,0.527-0.391,1.091-0.924,1.692
		c-0.534,0.602-1.047,1.184-1.54,1.748c-1.027,1.128-1.705,1.936-2.034,2.424c-0.452,0.639-0.534,1.053-0.247,1.241
		c0.164,0.113,0.39,0.142,0.678,0.084c0.287-0.056,0.554-0.141,0.801-0.254c0.37-0.15,0.801-0.375,1.294-0.676
		c0.493-0.301,1.047-0.658,1.664-1.072c0.493-0.339,1.026-0.743,1.602-1.213c0.575-0.47,1.048-0.855,1.417-1.156
		c0.164-0.112,0.317-0.206,0.462-0.281c0.144-0.075,0.256-0.075,0.339,0c0.082,0.075,0.031,0.197-0.154,0.367
		c-0.185,0.169-0.319,0.291-0.401,0.366c-0.37,0.301-0.924,0.763-1.664,1.383c-0.739,0.62-1.438,1.137-2.095,1.55
		c-0.658,0.452-1.479,0.941-2.465,1.466c-0.986,0.527-1.993,0.79-3.019,0.79H433.702z"/>
	<path fill="#DCE0DF" d="M445.1,137.163c-2.301,0-3.389-0.776-3.266-2.329c0.083-0.554,0.277-1.127,0.585-1.719
		c0.308-0.591,0.708-1.146,1.202-1.664l-0.062-0.573c-0.165,0.165-0.319,0.319-0.462,0.462c-0.145,0.145-0.318,0.298-0.523,0.462
		c-0.164,0.124-0.318,0.237-0.462,0.339c-0.144,0.103-0.256,0.114-0.339,0.031c-0.082-0.082-0.062-0.194,0.062-0.339
		c0.124-0.143,0.247-0.277,0.37-0.4c0.33-0.328,0.667-0.599,1.017-0.812c0.348-0.212,0.687-0.415,1.017-0.607
		c0.328-0.16,0.77-0.383,1.325-0.672c0.555-0.288,1.14-0.561,1.756-0.817c1.068-0.447,2.074-0.804,3.02-1.069
		c0.944-0.265,1.827-0.356,2.649-0.274c0.698,0.103,1.181,0.334,1.448,0.693c0.267,0.36,0.339,0.779,0.215,1.258
		c-0.082,0.479-0.359,0.89-0.831,1.232c-0.474,0.343-0.894,0.513-1.263,0.513c-0.535,0-0.832-0.185-0.895-0.554
		c-0.061-0.37,0.072-0.78,0.4-1.232c0.329-0.575,0.534-1.037,0.617-1.386c0.082-0.349-0.062-0.564-0.432-0.647
		c-0.74-0.124-2.013,0.739-3.82,2.588c-0.822,0.822-1.582,1.722-2.28,2.701c-0.699,0.979-1.089,1.814-1.171,2.505
		c-0.123,0.884,0.349,1.325,1.417,1.325c0.41,0,1.109-0.133,2.095-0.4c0.986-0.267,2.157-0.873,3.513-1.818
		c0.574-0.41,1.201-0.872,1.879-1.386c0.678-0.513,1.201-0.955,1.571-1.325c0.123-0.082,0.277-0.185,0.462-0.308
		c0.186-0.124,0.318-0.144,0.4-0.062c0.082,0.083,0.062,0.206-0.062,0.37c-0.123,0.165-0.268,0.308-0.431,0.431
		c-0.33,0.329-0.812,0.761-1.449,1.294c-0.637,0.534-1.324,1.047-2.063,1.541c-1.069,0.739-2.26,1.366-3.574,1.879
		c-1.315,0.514-2.506,0.77-3.574,0.77H445.1z"/>
	<path fill="#DCE0DF" d="M465.865,127.181c0.615,0,1.078,0.165,1.387,0.494c0.307,0.33,0.439,0.641,0.4,0.932
		c-0.084,0.732-0.525,1.372-1.326,1.921s-1.674,1.023-2.617,1.426c-0.947,0.402-1.91,0.75-2.896,1.042
		c-0.986,0.293-1.809,0.53-2.465,0.712c-0.123,0.22-0.206,0.431-0.246,0.632c-0.042,0.201-0.083,0.393-0.123,0.576
		c-0.042,0.402,0.07,0.704,0.338,0.905s0.625,0.32,1.078,0.356c0.699,0,1.5-0.164,2.404-0.493c0.902-0.328,1.971-0.903,3.203-1.725
		c0.697-0.452,1.418-0.975,2.156-1.571c0.74-0.595,1.334-1.119,1.787-1.571c0.123-0.123,0.268-0.236,0.432-0.339
		c0.164-0.102,0.287-0.113,0.369-0.031c0.082,0.083,0.041,0.226-0.123,0.431c-0.164,0.206-0.287,0.35-0.369,0.432
		c-0.453,0.452-1.018,0.955-1.695,1.509c-0.678,0.555-1.406,1.12-2.188,1.695c-2.629,1.767-5.031,2.649-7.209,2.649
		c-1.15,0-2.013-0.203-2.588-0.609c-0.574-0.406-0.841-0.962-0.801-1.665c0.083-0.517,0.247-1.034,0.493-1.552
		c0.247-0.518,0.575-1.017,0.985-1.498h-0.061l-0.493,0.493c-0.164,0.123-0.317,0.237-0.462,0.339
		c-0.145,0.103-0.256,0.113-0.34,0.031c-0.081-0.082-0.061-0.194,0.062-0.339c0.123-0.144,0.246-0.277,0.369-0.4
		c0.33-0.304,0.668-0.576,1.018-0.816c0.348-0.24,0.687-0.471,1.016-0.693c0.328-0.185,0.76-0.434,1.295-0.748
		c0.533-0.314,1.088-0.619,1.662-0.916c0.904-0.406,1.838-0.775,2.805-1.108c0.965-0.333,1.857-0.5,2.68-0.5H465.865z
		 M458.717,133.897c0.617-0.205,1.314-0.462,2.096-0.771c0.779-0.308,1.498-0.687,2.156-1.14c0.779-0.533,1.387-1.088,1.818-1.664
		c0.43-0.575,0.666-1.088,0.707-1.541c0.123-0.533-0.123-0.801-0.738-0.801c-0.289,0.042-0.658,0.185-1.109,0.432
		c-0.453,0.247-0.986,0.657-1.602,1.232c-0.494,0.452-1.078,1.109-1.756,1.972c-0.678,0.862-1.203,1.602-1.572,2.218V133.897z"/>
	<path fill="#DCE0DF" d="M480.283,134.45c0.369-0.112,0.678-0.187,0.924-0.225s0.637-0.038,1.17,0
		c0.699,0.075,1.396,0.234,2.096,0.478c0.697,0.244,1.293,0.365,1.787,0.365c0.738,0,1.426-0.154,2.064-0.462
		c0.635-0.308,1.406-0.934,2.311-1.879c0.082-0.082,0.154-0.164,0.215-0.247c0.062-0.082,0.133-0.102,0.217-0.062
		c0.162,0.083,0.162,0.247,0,0.493c-0.947,1.15-1.902,2.147-2.865,2.988c-0.967,0.842-2.086,1.263-3.359,1.263
		c-0.576,0-1.17-0.02-1.787-0.062c-0.615-0.041-1.17-0.185-1.662-0.432c-0.453-0.205-0.863-0.348-1.232-0.431
		c-0.371-0.082-0.803-0.123-1.295-0.123c-0.33,0-0.678,0.062-1.047,0.185c-0.371,0.124-0.678,0.268-0.924,0.432
		c-0.205,0.123-0.441,0.226-0.709,0.308c-0.268,0.083-0.482,0.133-0.648,0.154c-0.162,0.021-0.205,0.01-0.123-0.031
		c0.084-0.192,0.248-0.367,0.494-0.521c0.246-0.154,0.432-0.27,0.555-0.348c0.451-0.308,1.232-0.713,2.342-1.215
		c1.107-0.501,2.238-1.08,3.389-1.736c1.025-0.579,2.043-1.206,3.049-1.881c1.006-0.675,1.92-1.378,2.742-2.112
		c0.822-0.732,1.541-1.465,2.156-2.199c0.617-0.734,1.027-1.409,1.232-2.027c0.205-0.655,0.154-1.196-0.154-1.62
		c-0.307-0.424-0.77-0.636-1.385-0.636c-1.521,0-2.938,0.485-4.252,1.456c-0.453,0.336-0.885,0.746-1.295,1.231
		c-0.41,0.485-0.699,0.99-0.861,1.512c-0.166,0.672-0.072,1.141,0.277,1.408c0.348,0.268,0.811,0.339,1.385,0.216
		c0.205-0.075,0.328-0.055,0.371,0.062c0,0.165-0.145,0.288-0.432,0.37c-0.207,0.083-0.441,0.145-0.709,0.185
		c-0.268,0.041-0.504,0.041-0.709,0c-0.699-0.041-1.129-0.268-1.293-0.68c-0.166-0.412-0.207-0.827-0.123-1.244
		c0.205-0.644,0.584-1.27,1.139-1.876s1.182-1.174,1.879-1.706c0.904-0.644,1.881-1.155,2.928-1.535s2.084-0.569,3.111-0.569
		c1.396,0,2.352,0.338,2.865,1.012s0.605,1.536,0.277,2.584c-0.41,1.199-1.254,2.285-2.525,3.258
		c-1.273,0.974-2.711,1.91-4.314,2.809c-1.232,0.638-2.506,1.218-3.82,1.742c-1.314,0.525-2.465,0.955-3.449,1.292V134.45z"/>
	<path fill="#DCE0DF" d="M497.658,137.163c-1.164,0-2.07-0.312-2.723-0.938c-0.65-0.626-0.912-1.545-0.789-2.759
		c0.125-1.401,0.641-2.738,1.541-4.008c0.902-1.27,1.785-2.34,2.648-3.213c1.15-1.213,2.484-2.217,4.006-3.013
		c1.518-0.796,2.875-1.309,4.066-1.536c0.205,0,0.471,0,0.801,0c0.369,0,0.533,0,0.492,0c-0.041,0.039-0.164,0.067-0.369,0.086
		c-0.205,0.02-0.514,0.162-0.924,0.43c-0.74,0.459-1.594,1.147-2.557,2.064c-0.967,0.917-1.922,1.93-2.865,3.039
		c-1.027,1.147-1.932,2.37-2.713,3.67c-0.779,1.3-1.273,2.446-1.479,3.44c-0.336,1.338,0.033,2.045,1.109,2.121
		c0.945,0.083,1.982-0.338,3.111-1.262c1.131-0.923,2.291-2.076,3.482-3.457c0.986-1.189,1.889-2.465,2.711-3.827
		c0.82-1.362,1.418-2.657,1.787-3.886c0.287-0.92,0.225-1.573-0.186-1.958c-0.205-0.191-0.391-0.306-0.555-0.345
		c-0.164-0.038-0.227-0.098-0.184-0.179c0.039-0.081,0.234-0.111,0.584-0.091c0.35,0.021,0.627,0.072,0.832,0.154
		c0.574,0.23,1.037,0.7,1.387,1.409c0.348,0.709,0.359,1.582,0.031,2.616c-0.33,1.112-0.904,2.262-1.727,3.451
		c-0.822,1.188-1.785,2.337-2.895,3.448c-1.398,1.419-2.877,2.53-4.438,3.335c-1.561,0.805-2.938,1.208-4.127,1.208H497.658z"/>
	<path fill="#DCE0DF" d="M521.01,124.16c-0.615,0.42-1.293,0.832-2.033,1.232c-0.738,0.401-1.416,0.754-2.033,1.059
		c-0.699,0.306-1.355,0.516-1.971,0.631c-0.617,0.114-0.945,0.114-0.986,0c-0.041-0.076-0.041-0.125,0-0.144
		s0.164-0.066,0.369-0.144c0.205-0.076,0.514-0.2,0.924-0.372s0.965-0.429,1.664-0.774c0.945-0.458,1.879-0.925,2.805-1.403
		c0.924-0.478,1.775-0.965,2.557-1.461c0.328-0.19,0.76-0.419,1.293-0.687c0.535-0.268,0.945-0.401,1.232-0.401
		c0.205,0,0.299,0.094,0.277,0.283c-0.02,0.188-0.256,0.51-0.707,0.963c-1.973,2.19-3.719,4.202-5.238,6.033
		c-1.52,1.832-3,3.692-4.436,5.58c-0.371,0.491-0.68,0.879-0.926,1.162c-0.246,0.283-0.514,0.51-0.801,0.68
		s-0.637,0.311-1.047,0.425c-0.412,0.114-0.967,0.226-1.664,0.34c-0.287,0-0.514,0-0.678,0h-0.309c0-0.114,0.104-0.324,0.309-0.63
		c0.207-0.305,0.533-0.725,0.986-1.26c0.779-0.955,1.715-2.043,2.803-3.266c1.088-1.222,2.156-2.387,3.205-3.494
		c1.047-1.107,1.98-2.062,2.803-2.863c0.822-0.802,1.355-1.28,1.602-1.433V124.16z"/>
	<path fill="#DCE0DF" d="M523.537,134.45c0.369-0.112,0.678-0.187,0.924-0.225s0.637-0.038,1.17,0
		c0.699,0.075,1.396,0.234,2.096,0.478c0.697,0.244,1.293,0.365,1.787,0.365c0.738,0,1.426-0.154,2.064-0.462
		c0.635-0.308,1.406-0.934,2.311-1.879c0.082-0.082,0.154-0.164,0.215-0.247c0.062-0.082,0.133-0.102,0.217-0.062
		c0.162,0.083,0.162,0.247,0,0.493c-0.947,1.15-1.902,2.147-2.865,2.988c-0.967,0.842-2.086,1.263-3.359,1.263
		c-0.576,0-1.17-0.02-1.787-0.062c-0.615-0.041-1.17-0.185-1.662-0.432c-0.453-0.205-0.863-0.348-1.232-0.431
		c-0.371-0.082-0.803-0.123-1.295-0.123c-0.33,0-0.678,0.062-1.047,0.185c-0.371,0.124-0.678,0.268-0.924,0.432
		c-0.205,0.123-0.441,0.226-0.709,0.308c-0.268,0.083-0.482,0.133-0.648,0.154c-0.162,0.021-0.205,0.01-0.123-0.031
		c0.084-0.192,0.248-0.367,0.494-0.521c0.246-0.154,0.432-0.27,0.555-0.348c0.451-0.308,1.232-0.713,2.342-1.215
		c1.107-0.501,2.238-1.08,3.389-1.736c1.025-0.579,2.043-1.206,3.049-1.881c1.006-0.675,1.92-1.378,2.742-2.112
		c0.822-0.732,1.541-1.465,2.156-2.199c0.617-0.734,1.027-1.409,1.232-2.027c0.205-0.655,0.154-1.196-0.154-1.62
		c-0.307-0.424-0.77-0.636-1.385-0.636c-1.521,0-2.938,0.485-4.252,1.456c-0.453,0.336-0.885,0.746-1.295,1.231
		c-0.41,0.485-0.699,0.99-0.861,1.512c-0.166,0.672-0.072,1.141,0.277,1.408c0.348,0.268,0.811,0.339,1.385,0.216
		c0.205-0.075,0.328-0.055,0.371,0.062c0,0.165-0.145,0.288-0.432,0.37c-0.207,0.083-0.441,0.145-0.709,0.185
		c-0.268,0.041-0.504,0.041-0.709,0c-0.699-0.041-1.129-0.268-1.293-0.68c-0.166-0.412-0.207-0.827-0.123-1.244
		c0.205-0.644,0.584-1.27,1.139-1.876s1.182-1.174,1.879-1.706c0.904-0.644,1.881-1.155,2.928-1.535s2.084-0.569,3.111-0.569
		c1.396,0,2.352,0.338,2.865,1.012s0.605,1.536,0.277,2.584c-0.41,1.199-1.254,2.285-2.525,3.258
		c-1.273,0.974-2.711,1.91-4.314,2.809c-1.232,0.638-2.506,1.218-3.82,1.742c-1.314,0.525-2.465,0.955-3.449,1.292V134.45z"/>
</g>
<g>
	<g>
		<path fill-rule="evenodd" clip-rule="evenodd" fill="#DCE0DF" d="M279.608,129.479h79.49v-3.222h-79.49V129.479z M555.312,126.257
			v3.222h79.492v-3.222H555.312z"/>
	</g>
</g>
<g>
	<path fill="#DCE0DF" d="M228.315,285.215c0.51,0.223,0.954,0.521,1.332,0.898c0.377,0.379,0.677,0.822,0.899,1.332
		c0.222,0.512,0.333,1.055,0.333,1.633v1.996c0,0.312-0.145,0.512-0.433,0.6l-3.03,0.467c-0.289,0.09-0.433-0.021-0.433-0.332
		v-2.564c0-0.223-0.078-0.41-0.233-0.566c-0.156-0.154-0.345-0.232-0.566-0.232h-0.266c-0.222,0-0.411,0.078-0.566,0.232
		c-0.156,0.156-0.233,0.344-0.233,0.566v11.721c0,0.223,0.078,0.41,0.233,0.566c0.155,0.154,0.344,0.232,0.566,0.232h0.266
		c0.222,0,0.411-0.078,0.566-0.232c0.155-0.156,0.233-0.344,0.233-0.566v-3.996c0-0.311,0.144-0.422,0.433-0.332l3.03,0.398
		c0.288,0.09,0.433,0.289,0.433,0.6v3.496c0,0.578-0.111,1.121-0.333,1.631c-0.222,0.512-0.522,0.955-0.899,1.332
		c-0.378,0.379-0.822,0.678-1.332,0.9c-0.511,0.221-1.055,0.332-1.632,0.332h-1.265c-0.578,0-1.121-0.111-1.631-0.332
		c-0.511-0.223-0.955-0.521-1.332-0.9c-0.378-0.377-0.677-0.82-0.899-1.332c-0.222-0.51-0.333-1.053-0.333-1.631v-12.053
		c0-0.578,0.111-1.121,0.333-1.633c0.222-0.51,0.521-0.953,0.899-1.332c0.377-0.377,0.821-0.676,1.332-0.898
		c0.51-0.221,1.054-0.334,1.631-0.334h1.265C227.26,284.881,227.804,284.994,228.315,285.215z"/>
	<path fill="#DCE0DF" d="M246.029,285.582v15.549c0,0.578-0.111,1.121-0.333,1.631c-0.222,0.512-0.522,0.955-0.899,1.332
		c-0.378,0.379-0.822,0.678-1.332,0.9c-0.511,0.221-1.055,0.332-1.632,0.332h-1.265c-0.578,0-1.121-0.111-1.631-0.332
		c-0.511-0.223-0.955-0.521-1.332-0.9c-0.378-0.377-0.677-0.82-0.899-1.332c-0.222-0.51-0.333-1.053-0.333-1.631v-15.549
		c0-0.312,0.155-0.467,0.466-0.467h2.964c0.311,0,0.466,0.154,0.466,0.467v15.383c0,0.223,0.078,0.41,0.233,0.566
		c0.155,0.154,0.344,0.232,0.566,0.232h0.266c0.222,0,0.411-0.078,0.566-0.232c0.155-0.156,0.233-0.344,0.233-0.566v-15.383
		c0-0.312,0.155-0.467,0.466-0.467h2.963C245.873,285.115,246.029,285.27,246.029,285.582z"/>
	<path fill="#DCE0DF" d="M258.615,285.215c0.51,0.223,0.954,0.521,1.332,0.898c0.377,0.379,0.677,0.822,0.899,1.332
		c0.222,0.512,0.333,1.055,0.333,1.633v1.264c0,0.312-0.145,0.512-0.433,0.6l-3.03,0.799c-0.289,0.09-0.433-0.021-0.433-0.332
		v-2.164c0-0.223-0.078-0.41-0.233-0.566c-0.156-0.154-0.345-0.232-0.566-0.232h-0.267c-0.222,0-0.411,0.078-0.566,0.232
		c-0.156,0.156-0.233,0.344-0.233,0.566v2.031c0.022,0.244,0.067,0.455,0.133,0.633s0.188,0.355,0.366,0.531l4.362,3.264
		c0.355,0.311,0.583,0.627,0.683,0.949c0.1,0.322,0.172,0.684,0.217,1.082v3.396c0,0.578-0.111,1.121-0.333,1.631
		c-0.222,0.512-0.522,0.955-0.899,1.332c-0.378,0.379-0.822,0.678-1.332,0.9c-0.511,0.221-1.055,0.332-1.632,0.332h-1.265
		c-0.578,0-1.121-0.111-1.631-0.332c-0.511-0.223-0.955-0.521-1.332-0.9c-0.378-0.377-0.677-0.82-0.899-1.332
		c-0.222-0.51-0.333-1.053-0.333-1.631v-1.865c0-0.311,0.144-0.51,0.433-0.6l3.03-0.799c0.288-0.088,0.433,0.023,0.433,0.334v2.764
		c0,0.223,0.078,0.41,0.233,0.566c0.155,0.154,0.344,0.232,0.566,0.232h0.267c0.221,0,0.41-0.078,0.566-0.232
		c0.155-0.156,0.233-0.344,0.233-0.566V298.9c-0.022-0.289-0.066-0.545-0.133-0.766c-0.066-0.223-0.2-0.422-0.399-0.6l-4.295-3.297
		c-0.333-0.311-0.572-0.621-0.716-0.932c-0.145-0.311-0.216-0.723-0.216-1.232v-2.996c0-0.578,0.111-1.121,0.333-1.633
		c0.222-0.51,0.521-0.953,0.899-1.332c0.377-0.377,0.821-0.676,1.332-0.898c0.51-0.221,1.054-0.334,1.631-0.334h1.265
		C257.56,284.881,258.104,284.994,258.615,285.215z"/>
	<path fill="#DCE0DF" d="M275.363,285.582v2.963c0,0.311-0.156,0.465-0.466,0.465h-2.364v15.617c0,0.311-0.156,0.467-0.466,0.467
		h-2.963c-0.111,0-0.217-0.045-0.316-0.133c-0.1-0.09-0.15-0.201-0.15-0.334V289.01h-2.331c-0.312,0-0.466-0.154-0.466-0.465v-2.963
		c0-0.312,0.155-0.467,0.466-0.467h8.59C275.207,285.115,275.363,285.27,275.363,285.582z"/>
	<path fill="#DCE0DF" d="M290.014,301.131c0,0.578-0.111,1.121-0.333,1.631c-0.222,0.512-0.522,0.955-0.899,1.332
		c-0.378,0.379-0.822,0.678-1.332,0.9c-0.511,0.221-1.055,0.332-1.632,0.332h-1.265c-0.578,0-1.121-0.111-1.631-0.332
		c-0.511-0.223-0.955-0.521-1.332-0.9c-0.378-0.377-0.677-0.82-0.899-1.332c-0.222-0.51-0.333-1.053-0.333-1.631v-12.053
		c0-0.578,0.111-1.121,0.333-1.633c0.222-0.51,0.521-0.953,0.899-1.332c0.377-0.377,0.821-0.676,1.332-0.898
		c0.51-0.221,1.054-0.334,1.631-0.334h1.265c0.577,0,1.121,0.113,1.632,0.334c0.51,0.223,0.954,0.521,1.332,0.898
		c0.377,0.379,0.677,0.822,0.899,1.332c0.222,0.512,0.333,1.055,0.333,1.633V301.131z M286.118,289.244
		c0-0.223-0.078-0.41-0.233-0.566c-0.156-0.154-0.345-0.232-0.566-0.232h-0.266c-0.222,0-0.411,0.078-0.566,0.232
		c-0.156,0.156-0.233,0.344-0.233,0.566v11.721c0,0.223,0.078,0.41,0.233,0.566c0.155,0.154,0.344,0.232,0.566,0.232h0.266
		c0.222,0,0.411-0.078,0.566-0.232c0.155-0.156,0.233-0.344,0.233-0.566V289.244z"/>
	<path fill="#DCE0DF" d="M308.993,285.582v19.045c0,0.311-0.156,0.467-0.466,0.467h-3.196c-0.312,0-0.466-0.156-0.466-0.467v-8.857
		l-2.198,7.926c-0.044,0.111-0.1,0.166-0.167,0.166c-0.066,0-0.122-0.055-0.167-0.166l-2.197-7.926v8.857
		c0,0.311-0.156,0.467-0.466,0.467h-3.197c-0.311,0-0.466-0.156-0.466-0.467v-19.045c0-0.312,0.155-0.467,0.466-0.467h2.831
		c0.133,0,0.25,0.049,0.35,0.15c0.1,0.1,0.171,0.205,0.216,0.316l2.63,10.254l2.63-10.254c0.044-0.111,0.117-0.217,0.217-0.316
		c0.1-0.102,0.216-0.15,0.35-0.15h2.83C308.837,285.115,308.993,285.27,308.993,285.582z"/>
	<path fill="#DCE0DF" d="M339.459,285.582l-3.596,19.045c-0.045,0.311-0.222,0.467-0.533,0.467h-2.93
		c-0.311,0-0.489-0.156-0.533-0.467l-1.166-6.959h-0.033l-1.166,6.959c-0.045,0.311-0.222,0.467-0.533,0.467h-2.93
		c-0.311,0-0.488-0.156-0.533-0.467l-3.596-19.045c-0.045-0.312,0.088-0.467,0.399-0.467h3.596c0.289,0,0.455,0.154,0.5,0.467
		l1.166,11.254h0.133l1.265-11.254c0.044-0.312,0.211-0.467,0.5-0.467h2.431c0.288,0,0.455,0.154,0.5,0.467l1.265,11.254h0.133
		l1.166-11.254c0.044-0.312,0.21-0.467,0.5-0.467h3.596C339.371,285.115,339.503,285.27,339.459,285.582z"/>
	<path fill="#DCE0DF" d="M353.644,301.131c0,0.578-0.111,1.121-0.333,1.631c-0.222,0.512-0.522,0.955-0.899,1.332
		c-0.378,0.379-0.822,0.678-1.332,0.9c-0.511,0.221-1.055,0.332-1.632,0.332h-1.265c-0.578,0-1.121-0.111-1.631-0.332
		c-0.511-0.223-0.955-0.521-1.332-0.9c-0.378-0.377-0.677-0.82-0.899-1.332c-0.222-0.51-0.333-1.053-0.333-1.631v-12.053
		c0-0.578,0.111-1.121,0.333-1.633c0.222-0.51,0.521-0.953,0.899-1.332c0.377-0.377,0.821-0.676,1.332-0.898
		c0.51-0.221,1.054-0.334,1.631-0.334h1.265c0.577,0,1.121,0.113,1.632,0.334c0.51,0.223,0.954,0.521,1.332,0.898
		c0.377,0.379,0.677,0.822,0.899,1.332c0.222,0.512,0.333,1.055,0.333,1.633V301.131z M349.748,289.244
		c0-0.223-0.078-0.41-0.233-0.566c-0.156-0.154-0.345-0.232-0.566-0.232h-0.266c-0.222,0-0.411,0.078-0.566,0.232
		c-0.156,0.156-0.233,0.344-0.233,0.566v11.721c0,0.223,0.078,0.41,0.233,0.566c0.155,0.154,0.344,0.232,0.566,0.232h0.266
		c0.222,0,0.411-0.078,0.566-0.232c0.155-0.156,0.233-0.344,0.233-0.566V289.244z"/>
	<path fill="#DCE0DF" d="M363.533,304.627c0,0.311-0.167,0.467-0.5,0.467h-2.963c-0.289,0-0.433-0.156-0.433-0.467v-19.045
		c0-0.312,0.155-0.467,0.466-0.467h4.995c0.577,0,1.121,0.111,1.632,0.332c0.51,0.223,0.954,0.521,1.332,0.9
		c0.377,0.377,0.677,0.82,0.899,1.332c0.222,0.51,0.333,1.053,0.333,1.631v4.096c0,0.82-0.245,1.559-0.733,2.215
		c-0.488,0.654-1.077,1.16-1.765,1.514l3.163,7.492c0.067,0.311-0.044,0.467-0.333,0.467h-3.03c-0.133,0-0.261-0.045-0.383-0.133
		c-0.123-0.09-0.206-0.201-0.25-0.334l-2.431-6.16V304.627z M363.533,294.039h1.065c0.222,0,0.411-0.078,0.566-0.234
		c0.155-0.154,0.233-0.344,0.233-0.564v-3.764c0-0.221-0.078-0.41-0.233-0.566c-0.156-0.154-0.345-0.232-0.566-0.232h-1.065V294.039
		z"/>
	<path fill="#DCE0DF" d="M386.674,285.266c0.044,0.1,0.044,0.205,0,0.316l-4.528,8.49l4.462,10.555
		c0.044,0.111,0.033,0.217-0.033,0.316c-0.067,0.1-0.167,0.15-0.3,0.15h-3.296c-0.133,0-0.255-0.039-0.366-0.117
		c-0.111-0.078-0.189-0.172-0.233-0.283l-2.431-5.527l-0.566,1.066v4.395c0,0.311-0.155,0.467-0.466,0.467h-2.964
		c-0.311,0-0.466-0.156-0.466-0.467v-19.045c0-0.312,0.155-0.467,0.466-0.467h2.964c0.311,0,0.466,0.154,0.466,0.467v5.826
		l3.063-5.895c0.111-0.266,0.321-0.398,0.633-0.398h3.33C386.541,285.115,386.629,285.164,386.674,285.266z"/>
</g>
<g>
	<g>
		<path fill="#DCE0DF" d="M538.84,285.582v15.549c0,0.578-0.111,1.121-0.334,1.631c-0.221,0.512-0.521,0.955-0.898,1.332
			c-0.377,0.379-0.82,0.678-1.332,0.9c-0.51,0.221-1.055,0.332-1.631,0.332h-1.266c-0.578,0-1.121-0.111-1.631-0.332
			c-0.512-0.223-0.955-0.521-1.332-0.9c-0.379-0.377-0.678-0.82-0.9-1.332c-0.221-0.51-0.332-1.053-0.332-1.631v-15.549
			c0-0.312,0.154-0.467,0.467-0.467h2.963c0.311,0,0.467,0.154,0.467,0.467v15.383c0,0.223,0.076,0.41,0.232,0.566
			c0.154,0.154,0.344,0.232,0.566,0.232h0.266c0.223,0,0.41-0.078,0.566-0.232c0.154-0.156,0.232-0.344,0.232-0.566v-15.383
			c0-0.312,0.156-0.467,0.467-0.467h2.963C538.684,285.115,538.84,285.27,538.84,285.582z"/>
		<path fill="#DCE0DF" d="M550.293,285.115c0.578,0,1.121,0.111,1.633,0.332c0.51,0.223,0.953,0.521,1.332,0.9
			c0.377,0.377,0.676,0.82,0.898,1.332c0.221,0.51,0.332,1.053,0.332,1.631v4.428c0,0.578-0.111,1.121-0.332,1.633
			c-0.223,0.51-0.521,0.953-0.898,1.332c-0.379,0.377-0.822,0.676-1.332,0.898c-0.512,0.223-1.055,0.332-1.633,0.332h-1.564v6.693
			c0,0.311-0.156,0.467-0.467,0.467h-2.963c-0.311,0-0.467-0.156-0.467-0.467v-19.045c0-0.312,0.156-0.467,0.467-0.467H550.293z
			 M550.594,289.477c0-0.221-0.078-0.41-0.234-0.566c-0.154-0.154-0.344-0.232-0.564-0.232h-1.066v5.693h1.066
			c0.221,0,0.41-0.076,0.564-0.232c0.156-0.154,0.234-0.344,0.234-0.566V289.477z"/>
		<path fill="#DCE0DF" d="M569.307,301.131c0,0.578-0.111,1.121-0.334,1.631c-0.221,0.512-0.521,0.955-0.898,1.332
			c-0.377,0.379-0.82,0.678-1.332,0.9c-0.51,0.221-1.055,0.332-1.631,0.332h-1.266c-0.578,0-1.121-0.111-1.631-0.332
			c-0.512-0.223-0.955-0.521-1.332-0.9c-0.379-0.377-0.678-0.82-0.9-1.332c-0.221-0.51-0.332-1.053-0.332-1.631v-12.053
			c0-0.578,0.111-1.121,0.332-1.633c0.223-0.51,0.521-0.953,0.9-1.332c0.377-0.377,0.82-0.676,1.332-0.898
			c0.51-0.221,1.053-0.334,1.631-0.334h1.266c0.576,0,1.121,0.113,1.631,0.334c0.512,0.223,0.955,0.521,1.332,0.898
			c0.377,0.379,0.678,0.822,0.898,1.332c0.223,0.512,0.334,1.055,0.334,1.633V301.131z M565.41,289.244
			c0-0.223-0.078-0.41-0.232-0.566c-0.156-0.154-0.344-0.232-0.566-0.232h-0.266c-0.223,0-0.412,0.078-0.566,0.232
			c-0.156,0.156-0.232,0.344-0.232,0.566v11.721c0,0.223,0.076,0.41,0.232,0.566c0.154,0.154,0.344,0.232,0.566,0.232h0.266
			c0.223,0,0.41-0.078,0.566-0.232c0.154-0.156,0.232-0.344,0.232-0.566V289.244z"/>
		<path fill="#DCE0DF" d="M585.953,285.582v19.045c0,0.311-0.154,0.467-0.465,0.467h-2.131c-0.135,0-0.262-0.045-0.383-0.133
			c-0.123-0.09-0.207-0.189-0.25-0.301l-3.529-8.689v8.656c0,0.311-0.156,0.467-0.467,0.467h-2.963
			c-0.312,0-0.467-0.156-0.467-0.467v-19.045c0-0.312,0.154-0.467,0.467-0.467h2.197c0.133,0,0.26,0.045,0.383,0.133
			c0.121,0.09,0.205,0.189,0.25,0.299l3.463,9.689v-9.654c0-0.312,0.154-0.467,0.465-0.467h2.965
			C585.799,285.115,585.953,285.27,585.953,285.582z"/>
		<path fill="#DCE0DF" d="M603.9,304.627c0,0.311-0.166,0.467-0.5,0.467h-2.963c-0.289,0-0.434-0.156-0.434-0.467v-19.045
			c0-0.312,0.156-0.467,0.467-0.467h4.994c0.578,0,1.121,0.111,1.633,0.332c0.51,0.223,0.953,0.521,1.332,0.9
			c0.377,0.377,0.676,0.82,0.898,1.332c0.221,0.51,0.332,1.053,0.332,1.631v4.096c0,0.82-0.244,1.559-0.732,2.215
			c-0.488,0.654-1.076,1.16-1.764,1.514l3.162,7.492c0.066,0.311-0.045,0.467-0.332,0.467h-3.031c-0.133,0-0.26-0.045-0.383-0.133
			c-0.121-0.09-0.205-0.201-0.248-0.334l-2.432-6.16V304.627z M603.9,294.039h1.066c0.221,0,0.41-0.078,0.564-0.234
			c0.156-0.154,0.234-0.344,0.234-0.564v-3.764c0-0.221-0.078-0.41-0.234-0.566c-0.154-0.154-0.344-0.232-0.564-0.232H603.9V294.039
			z"/>
		<path fill="#DCE0DF" d="M624.012,301.664v2.963c0,0.311-0.154,0.467-0.465,0.467h-7.227c-0.311,0-0.467-0.156-0.467-0.467v-19.045
			c0-0.312,0.156-0.467,0.467-0.467h7.227c0.311,0,0.465,0.154,0.465,0.467v2.963c0,0.311-0.154,0.465-0.465,0.465h-3.797v3.797
			h3.297c0.311,0,0.467,0.156,0.467,0.467v2.963c0,0.311-0.156,0.467-0.467,0.467h-3.297v4.494h3.797
			C623.857,301.197,624.012,301.354,624.012,301.664z"/>
		<path fill="#DCE0DF" d="M639.527,306.426c0.068,0.109,0.084,0.227,0.051,0.35c-0.033,0.121-0.105,0.205-0.217,0.25l-2.297,1.031
			c-0.311,0.133-0.555,0.066-0.732-0.199l-1.699-2.531h-0.598c-0.578,0-1.123-0.111-1.633-0.332c-0.51-0.223-0.955-0.521-1.332-0.9
			c-0.377-0.377-0.678-0.82-0.898-1.332c-0.223-0.51-0.334-1.053-0.334-1.631v-12.053c0-0.578,0.111-1.121,0.334-1.633
			c0.221-0.51,0.521-0.953,0.898-1.332c0.377-0.377,0.822-0.676,1.332-0.898c0.51-0.221,1.055-0.334,1.633-0.334h1.264
			c0.578,0,1.121,0.113,1.633,0.334c0.51,0.223,0.953,0.521,1.332,0.898c0.377,0.379,0.676,0.822,0.898,1.332
			c0.221,0.512,0.332,1.055,0.332,1.633v12.053c0,0.621-0.121,1.205-0.365,1.748c-0.244,0.545-0.588,1.004-1.033,1.383
			L639.527,306.426z M633.734,300.965c0,0.223,0.078,0.41,0.232,0.566c0.156,0.154,0.344,0.232,0.566,0.232h0.268
			c0.221,0,0.41-0.078,0.564-0.232c0.156-0.156,0.234-0.344,0.234-0.566v-11.721c0-0.223-0.078-0.41-0.234-0.566
			c-0.154-0.154-0.344-0.232-0.564-0.232h-0.268c-0.223,0-0.41,0.078-0.566,0.232c-0.154,0.156-0.232,0.344-0.232,0.566V300.965z"/>
		<path fill="#DCE0DF" d="M654.943,285.582v15.549c0,0.578-0.111,1.121-0.332,1.631c-0.223,0.512-0.521,0.955-0.898,1.332
			c-0.379,0.379-0.822,0.678-1.332,0.9c-0.512,0.221-1.055,0.332-1.633,0.332h-1.264c-0.578,0-1.123-0.111-1.633-0.332
			c-0.51-0.223-0.955-0.521-1.332-0.9c-0.377-0.377-0.678-0.82-0.898-1.332c-0.223-0.51-0.334-1.053-0.334-1.631v-15.549
			c0-0.312,0.156-0.467,0.467-0.467h2.963c0.311,0,0.467,0.154,0.467,0.467v15.383c0,0.223,0.078,0.41,0.232,0.566
			c0.156,0.154,0.344,0.232,0.566,0.232h0.268c0.221,0,0.41-0.078,0.564-0.232c0.156-0.156,0.234-0.344,0.234-0.566v-15.383
			c0-0.312,0.154-0.467,0.465-0.467h2.965C654.789,285.115,654.943,285.27,654.943,285.582z"/>
		<path fill="#DCE0DF" d="M669.096,301.664v2.963c0,0.311-0.156,0.467-0.467,0.467h-7.225c-0.312,0-0.467-0.156-0.467-0.467v-19.045
			c0-0.312,0.154-0.467,0.467-0.467h7.225c0.311,0,0.467,0.154,0.467,0.467v2.963c0,0.311-0.156,0.465-0.467,0.465h-3.795v3.797
			h3.295c0.311,0,0.467,0.156,0.467,0.467v2.963c0,0.311-0.156,0.467-0.467,0.467h-3.295v4.494h3.795
			C668.939,301.197,669.096,301.354,669.096,301.664z"/>
		<path fill="#DCE0DF" d="M681.514,285.215c0.512,0.223,0.955,0.521,1.332,0.898c0.379,0.379,0.678,0.822,0.9,1.332
			c0.221,0.512,0.332,1.055,0.332,1.633v1.264c0,0.312-0.145,0.512-0.432,0.6l-3.031,0.799c-0.289,0.09-0.432-0.021-0.432-0.332
			v-2.164c0-0.223-0.078-0.41-0.234-0.566c-0.154-0.154-0.344-0.232-0.566-0.232h-0.266c-0.223,0-0.41,0.078-0.566,0.232
			c-0.154,0.156-0.232,0.344-0.232,0.566v2.031c0.021,0.244,0.066,0.455,0.133,0.633s0.188,0.355,0.367,0.531l4.361,3.264
			c0.355,0.311,0.582,0.627,0.682,0.949c0.102,0.322,0.172,0.684,0.217,1.082v3.396c0,0.578-0.111,1.121-0.332,1.631
			c-0.223,0.512-0.521,0.955-0.9,1.332c-0.377,0.379-0.82,0.678-1.332,0.9c-0.51,0.221-1.053,0.332-1.631,0.332h-1.266
			c-0.576,0-1.121-0.111-1.631-0.332c-0.512-0.223-0.955-0.521-1.332-0.9c-0.377-0.377-0.678-0.82-0.898-1.332
			c-0.223-0.51-0.334-1.053-0.334-1.631v-1.865c0-0.311,0.145-0.51,0.434-0.6l3.029-0.799c0.289-0.088,0.434,0.023,0.434,0.334
			v2.764c0,0.223,0.078,0.41,0.232,0.566c0.156,0.154,0.344,0.232,0.566,0.232h0.266c0.223,0,0.412-0.078,0.566-0.232
			c0.156-0.156,0.234-0.344,0.234-0.566V298.9c-0.023-0.289-0.068-0.545-0.135-0.766c-0.066-0.223-0.199-0.422-0.398-0.6
			l-4.295-3.297c-0.334-0.311-0.572-0.621-0.717-0.932s-0.217-0.723-0.217-1.232v-2.996c0-0.578,0.111-1.121,0.334-1.633
			c0.221-0.51,0.521-0.953,0.898-1.332c0.377-0.377,0.82-0.676,1.332-0.898c0.51-0.221,1.055-0.334,1.631-0.334h1.266
			C680.461,284.881,681.004,284.994,681.514,285.215z"/>
		<path fill="#DCE0DF" d="M698.264,285.582v2.963c0,0.311-0.156,0.465-0.467,0.465h-2.363v15.617c0,0.311-0.156,0.467-0.467,0.467
			h-2.963c-0.111,0-0.217-0.045-0.316-0.133c-0.1-0.09-0.15-0.201-0.15-0.334V289.01h-2.33c-0.312,0-0.467-0.154-0.467-0.465v-2.963
			c0-0.312,0.154-0.467,0.467-0.467h8.59C698.107,285.115,698.264,285.27,698.264,285.582z"/>
	</g>
</g>
<path fill-rule="evenodd" clip-rule="evenodd" fill="#DCE0DF" d="M483.854,304.318c-4.281-1.688-9.211-3.039-12.455-5.213
	c-5.48-3.676-5.516-11.043-12.43-12.301c-0.295-0.293-0.627-0.508-1.006-0.605c-0.22-3.641,2.893-4.916,3.863-7.971
	c0.84-2.633-0.107-4.889-1.926-6.242c-4.077-3.037-10.825,0.641-7.305,7.209c0.475,0.889,1.605,0.039,1.123-0.857
	c-3.745-6.988,7.061-7.723,7.146-1.883c0.031,2.074-2.035,3.844-3.003,5.232c-0.922,1.32-1.344,2.863-1.203,4.607
	c-0.426,0.166-0.783,0.463-1.098,0.85c-7.36,1.479-7.169,8.482-12.546,11.961c-7.729,4.998-23.366,5.67-25.488,15.641
	c23.653,0.717,54.34,0.066,79.362,0.291C496.434,307.93,489.941,306.719,483.854,304.318z M422.741,313.008
	c11.37-6.104,22.927-12.021,34.757-17.668c11.014,6.172,23.01,11.361,33.887,17.668C469.096,312.99,446.059,313.008,422.741,313.008
	z"/>
</svg>
